<svg width="557" height="602" viewBox="0 0 557 602" fill="none" xmlns="http://www.w3.org/2000/svg">
<path d="M471.964 248.643H311.466V540.555H471.964V248.643Z" fill="#E9EEF8"/>
<path d="M443.778 265.812H426.16V283.43H443.778V265.812Z" fill="#CDDDF1"/>
<path d="M443.778 301.576H426.16V319.194H443.778V301.576Z" fill="#CDDDF1"/>
<path d="M443.778 337.339H426.16V354.958H443.778V337.339Z" fill="#CDDDF1"/>
<path d="M64.9893 540.555V172.454L115.812 128.23V540.555H64.9893Z" fill="#E9EEF8"/>
<path d="M92.5 191.14H74.0729C72.7653 191.14 71.7048 190.08 71.7048 188.773C71.7048 187.465 72.7653 186.405 74.0729 186.405H92.5C93.8076 186.405 94.8681 187.465 94.8681 188.773C94.8681 190.08 93.8076 191.14 92.5 191.14Z" fill="#CDDDF1"/>
<path d="M92.5 201.513H74.0729C72.7653 201.513 71.7048 200.453 71.7048 199.146C71.7048 197.838 72.7653 196.778 74.0729 196.778H92.5C93.8076 196.778 94.8681 197.838 94.8681 199.146C94.8681 200.453 93.8076 201.513 92.5 201.513Z" fill="#CDDDF1"/>
<path d="M92.5 211.885H74.0729C72.7653 211.885 71.7048 210.826 71.7048 209.518C71.7048 208.21 72.7653 207.151 74.0729 207.151H92.5C93.8076 207.151 94.8681 208.21 94.8681 209.518C94.8681 210.826 93.8076 211.885 92.5 211.885Z" fill="#CDDDF1"/>
<path d="M514.06 328.673V545.799H463.235V372.896L514.06 328.673Z" fill="#E9EEF8"/>
<path d="M490.743 391.583H472.316C471.008 391.583 469.948 390.523 469.948 389.215C469.948 387.908 471.008 386.848 472.316 386.848H490.743C492.05 386.848 493.11 387.908 493.11 389.215C493.111 390.522 492.05 391.583 490.743 391.583Z" fill="#CDDDF1"/>
<path d="M490.743 401.955H472.316C471.008 401.955 469.948 400.895 469.948 399.587C469.948 398.28 471.008 397.22 472.316 397.22H490.743C492.05 397.22 493.11 398.28 493.11 399.587C493.111 400.895 492.05 401.955 490.743 401.955Z" fill="#CDDDF1"/>
<path d="M490.743 412.328H472.316C471.008 412.328 469.948 411.268 469.948 409.96C469.948 408.653 471.008 407.593 472.316 407.593H490.743C492.05 407.593 493.11 408.653 493.11 409.96C493.111 411.268 492.05 412.328 490.743 412.328Z" fill="#CDDDF1"/>
<path d="M92.4973 222.258H74.0703C72.7626 222.258 71.7021 221.199 71.7021 219.891C71.7021 218.583 72.7626 217.524 74.0703 217.524H92.4973C93.8049 217.524 94.8654 218.583 94.8654 219.891C94.8654 221.198 93.8049 222.258 92.4973 222.258Z" fill="#CDDDF1"/>
<path d="M172.367 300.336H13.2812V540.555H172.367V300.336Z" fill="#E9EEF8"/>
<path d="M44.5659 465.713C48.0803 459.81 51.1546 449.873 44.2644 441.956C37.3743 434.039 45.2245 430.766 46.2409 420.655C47.2574 410.545 34.0242 409.682 34.773 396.655C35.0774 391.354 31.3678 382.687 25.266 382.105C17.6579 381.38 13.2518 390.375 13.6133 396.654C14.3621 409.682 1.12895 410.545 2.14469 420.655C3.16042 430.766 11.0112 434.039 4.12103 441.956C-2.76913 449.874 0.305306 459.81 3.81969 465.713C7.33407 471.616 -0.35322 481.719 3.16043 490.504C6.65575 499.241 14.2785 512.104 24.1925 511.812C34.1064 512.104 41.7299 499.241 45.2245 490.504C48.7389 481.719 41.0515 471.615 44.5659 465.713Z" fill="#CDDDF1"/>
<path d="M24.6863 403.419V545.194H24.0264V403.419C24.0264 403.179 24.1723 402.984 24.3564 402.984C24.5375 402.983 24.6863 403.179 24.6863 403.419Z" fill="#92B2DD"/>
<path d="M24.3539 434.494C24.2571 434.494 24.1617 434.451 24.0964 434.37L13.3545 420.952C13.2408 420.809 13.2636 420.603 13.4059 420.489C13.5482 420.375 13.7549 420.398 13.8686 420.54L24.6106 433.958C24.7243 434.101 24.7015 434.307 24.5592 434.421C24.4991 434.47 24.4257 434.494 24.3539 434.494Z" fill="#92B2DD"/>
<path d="M24.3562 503.572C24.266 503.572 24.1765 503.535 24.1112 503.463C23.9895 503.328 23.9997 503.119 24.1354 502.998L36.8245 491.555C36.9594 491.433 37.1684 491.444 37.2894 491.579C37.4112 491.714 37.4002 491.923 37.2653 492.045L24.5762 503.488C24.5139 503.543 24.4347 503.572 24.3562 503.572Z" fill="#92B2DD"/>
<path d="M24.3547 412.765C24.2667 412.765 24.1786 412.73 24.1134 412.66L19.5335 407.752C19.4095 407.619 19.4168 407.41 19.5496 407.287C19.6831 407.163 19.8913 407.169 20.0153 407.303L24.5952 412.21C24.7191 412.344 24.7118 412.552 24.5791 412.676C24.516 412.736 24.4347 412.765 24.3547 412.765Z" fill="#92B2DD"/>
<path d="M24.3566 448.847C24.2642 448.847 24.1724 448.809 24.1072 448.733C23.9876 448.595 24.0024 448.388 24.1403 448.268L35.9932 437.983C36.1303 437.864 36.3386 437.878 36.4582 438.016C36.5777 438.153 36.5631 438.362 36.4252 438.481L24.5729 448.766C24.5098 448.82 24.4329 448.847 24.3566 448.847Z" fill="#92B2DD"/>
<path d="M24.3533 468.001C24.2675 468.001 24.1817 467.967 24.1165 467.901L9.37318 452.704C9.2463 452.574 9.24998 452.365 9.38052 452.239C9.51106 452.112 9.71935 452.115 9.84623 452.245L24.5895 467.442C24.7164 467.572 24.7127 467.781 24.5822 467.907C24.5184 467.97 24.4362 468.001 24.3533 468.001Z" fill="#92B2DD"/>
<path d="M553.183 465.713C556.697 459.81 559.771 449.873 552.881 441.956C545.991 434.039 553.841 430.766 554.858 420.655C555.874 410.545 542.641 409.682 543.389 396.655C543.693 391.354 539.984 382.687 533.882 382.105C526.274 381.38 521.868 390.375 522.229 396.654C522.978 409.682 509.745 410.545 510.761 420.655C511.777 430.766 519.627 434.039 512.737 441.956C505.847 449.873 508.922 459.81 512.436 465.713C515.95 471.616 508.263 481.719 511.777 490.504C515.272 499.241 522.895 512.104 532.809 511.812C542.723 512.104 550.346 499.241 553.841 490.504C557.356 481.718 549.669 471.615 553.183 465.713Z" fill="#CDDDF1"/>
<path d="M533.3 403.419V545.195H532.64V403.419C532.64 403.179 532.786 402.984 532.97 402.984C533.151 402.983 533.3 403.179 533.3 403.419Z" fill="#92B2DD"/>
<path d="M532.971 434.494C532.875 434.494 532.779 434.451 532.714 434.37L521.972 420.952C521.858 420.809 521.881 420.603 522.023 420.489C522.166 420.375 522.372 420.398 522.486 420.54L533.228 433.958C533.342 434.101 533.319 434.307 533.177 434.421C533.116 434.47 533.043 434.494 532.971 434.494Z" fill="#92B2DD"/>
<path d="M532.969 503.572C532.879 503.572 532.79 503.535 532.725 503.463C532.603 503.328 532.614 503.119 532.749 502.998L545.438 491.555C545.572 491.433 545.781 491.444 545.903 491.579C546.025 491.714 546.015 491.923 545.879 492.045L533.19 503.488C533.126 503.543 533.048 503.572 532.969 503.572Z" fill="#92B2DD"/>
<path d="M532.971 412.765C532.883 412.765 532.795 412.73 532.73 412.66L528.151 407.752C528.027 407.619 528.034 407.41 528.167 407.286C528.3 407.162 528.509 407.169 528.633 407.303L533.213 412.21C533.337 412.344 533.329 412.552 533.197 412.676C533.133 412.735 533.051 412.765 532.971 412.765Z" fill="#92B2DD"/>
<path d="M532.97 448.847C532.878 448.847 532.786 448.809 532.721 448.733C532.601 448.595 532.616 448.388 532.754 448.268L544.607 437.983C544.744 437.864 544.952 437.878 545.072 438.016C545.192 438.153 545.177 438.362 545.039 438.481L533.186 448.766C533.123 448.82 533.046 448.847 532.97 448.847Z" fill="#92B2DD"/>
<path d="M532.972 468.001C532.886 468.001 532.8 467.967 532.735 467.901L517.992 452.704C517.865 452.574 517.868 452.365 517.999 452.239C518.129 452.112 518.338 452.115 518.465 452.245L533.208 467.442C533.335 467.572 533.331 467.781 533.201 467.907C533.137 467.97 533.054 468.001 532.972 468.001Z" fill="#92B2DD"/>
<path d="M391.247 540.555H162.024C147.848 540.555 136.355 529.063 136.355 514.887V25.6685C136.355 11.4922 147.848 0 162.024 0H391.247C405.424 0 416.916 11.4922 416.916 25.6685V514.887C416.916 529.063 405.424 540.555 391.247 540.555Z" fill="#CDDDF1"/>
<path d="M389.116 17.0696H328.436V28.0096C328.436 29.0935 327.534 29.9721 326.422 29.9721H233.772C232.66 29.9721 231.758 29.0935 231.758 28.0096V17.0696H164.157C156.371 17.0696 150.059 23.2191 150.059 30.8052V513.32C150.059 520.905 156.371 527.054 164.157 527.054H389.117C396.903 527.054 403.215 520.905 403.215 513.32V30.8052C403.215 23.2191 396.902 17.0696 389.116 17.0696Z" fill="white"/>
<path d="M201.913 79.1552H197.885V304.093H201.913V79.1552Z" fill="#CDDDF1"/>
<path d="M213.63 92.9106C221.221 85.3204 221.221 73.0142 213.63 65.424C206.04 57.8337 193.734 57.8337 186.144 65.4239C178.553 73.0142 178.553 85.3203 186.144 92.9106C193.734 100.501 206.04 100.501 213.63 92.9106Z" fill="#E9EEF8"/>
<path d="M199.684 86.7765C198.592 86.7765 197.564 86.3174 196.831 85.4938L191.195 79.1639C190.529 78.4159 190.596 77.2703 191.344 76.6052C192.092 75.94 193.238 76.006 193.904 76.7533L199.538 83.0831C199.554 83.1015 199.606 83.1587 199.702 83.1499C199.8 83.1433 199.842 83.0824 199.855 83.0619L216.227 59.0127C216.79 58.1847 217.918 57.9713 218.746 58.5345C219.574 59.0978 219.788 60.2257 219.224 61.053L202.852 85.1029C202.184 86.0842 201.121 86.6914 199.937 86.7684C199.853 86.7736 199.768 86.7765 199.684 86.7765Z" fill="#6FC390"/>
<path d="M213.63 166.772C221.221 159.182 221.221 146.876 213.63 139.286C206.04 131.696 193.734 131.696 186.144 139.286C178.553 146.876 178.553 159.182 186.144 166.772C193.734 174.363 206.04 174.363 213.63 166.772Z" fill="#E9EEF8"/>
<path d="M199.684 160.639C198.592 160.639 197.564 160.18 196.831 159.356L191.195 153.026C190.529 152.278 190.596 151.132 191.344 150.467C192.092 149.801 193.238 149.867 193.904 150.615L199.538 156.945C199.554 156.963 199.606 157.02 199.702 157.012C199.8 157.005 199.842 156.945 199.855 156.924L216.227 132.875C216.79 132.047 217.918 131.833 218.746 132.397C219.574 132.96 219.788 134.088 219.224 134.915L202.852 158.965C202.184 159.946 201.121 160.554 199.937 160.631C199.853 160.636 199.768 160.639 199.684 160.639Z" fill="#6FC390"/>
<path d="M213.63 240.634C221.221 233.044 221.221 220.738 213.63 213.147C206.04 205.557 193.734 205.557 186.144 213.147C178.553 220.738 178.553 233.044 186.144 240.634C193.734 248.224 206.04 248.224 213.63 240.634Z" fill="#E9EEF8"/>
<path d="M213.63 313.512C221.221 305.922 221.221 293.616 213.63 286.026C206.04 278.435 193.734 278.435 186.144 286.025C178.553 293.616 178.553 305.922 186.144 313.512C193.734 321.102 206.04 321.102 213.63 313.512Z" fill="#E9EEF8"/>
<path d="M347.322 72.499H247.701C246.891 72.499 246.234 71.8426 246.234 71.0322V67.4775C246.234 66.6671 246.891 66.0107 247.701 66.0107H347.321C348.132 66.0107 348.788 66.6671 348.788 67.4775V71.0322C348.789 71.8418 348.132 72.499 347.322 72.499Z" fill="#CDDDF1"/>
<path d="M299.04 90.0209H247.701C246.891 90.0209 246.234 89.3645 246.234 88.5542V84.9994C246.234 84.189 246.891 83.5327 247.701 83.5327H299.04C299.85 83.5327 300.507 84.189 300.507 84.9994V88.5542C300.507 89.3638 299.85 90.0209 299.04 90.0209Z" fill="#CDDDF1"/>
<path d="M347.322 146.751H247.701C246.891 146.751 246.234 146.095 246.234 145.285V141.73C246.234 140.919 246.891 140.263 247.701 140.263H347.321C348.132 140.263 348.788 140.919 348.788 141.73V145.285C348.789 146.095 348.132 146.751 347.322 146.751Z" fill="#CDDDF1"/>
<path d="M299.04 164.273H247.701C246.891 164.273 246.234 163.616 246.234 162.807V159.252C246.234 158.442 246.891 157.785 247.701 157.785H299.04C299.85 157.785 300.507 158.442 300.507 159.252V162.807C300.507 163.617 299.85 164.273 299.04 164.273Z" fill="#CDDDF1"/>
<path d="M347.322 221.004H247.701C246.891 221.004 246.234 220.348 246.234 219.538V215.983C246.234 215.173 246.891 214.516 247.701 214.516H347.321C348.132 214.516 348.788 215.173 348.788 215.983V219.538C348.789 220.347 348.132 221.004 347.322 221.004Z" fill="#CDDDF1"/>
<path d="M299.04 238.526H247.701C246.891 238.526 246.234 237.87 246.234 237.06V233.505C246.234 232.695 246.891 232.038 247.701 232.038H299.04C299.85 232.038 300.507 232.695 300.507 233.505V237.06C300.507 237.869 299.85 238.526 299.04 238.526Z" fill="#CDDDF1"/>
<path d="M352.385 492.191H205.219C201.168 492.191 197.885 488.907 197.885 484.857V450.163C197.885 446.113 201.168 442.829 205.219 442.829H352.385C356.435 442.829 359.719 446.113 359.719 450.163V484.857C359.719 488.907 356.435 492.191 352.385 492.191Z" fill="#CDDDF1"/>
<path d="M221.515 472.158L145.059 504.238L145.371 504.981L221.826 472.901L221.515 472.158Z" fill="#92B2DD"/>
<path d="M145.288 472.477L144.982 473.223L221.72 504.631L222.025 503.885L145.288 472.477Z" fill="#92B2DD"/>
<path d="M198.912 450.105L167.247 526.734L167.991 527.042L199.656 450.412L198.912 450.105Z" fill="#92B2DD"/>
<path d="M168.033 450.1L167.289 450.408L199.062 526.996L199.806 526.688L168.033 450.1Z" fill="#92B2DD"/>
<path d="M183.485 436.627C154.786 436.627 131.521 459.892 131.521 488.591C131.521 517.29 154.786 540.555 183.485 540.555C212.183 540.555 235.449 517.29 235.449 488.591C235.449 459.892 212.183 436.627 183.485 436.627ZM183.485 530.049C160.588 530.049 142.028 511.487 142.028 488.592C142.028 465.695 160.589 447.135 183.485 447.135C206.38 447.135 224.941 465.696 224.941 488.592C224.941 511.487 206.38 530.049 183.485 530.049Z" fill="#294A71"/>
<path d="M184.293 447.134H182.682V530.049H184.293V447.134Z" fill="#92B2DD"/>
<path d="M224.945 487.786H142.031V489.397H224.945V487.786Z" fill="#92B2DD"/>
<path d="M154.724 458.717L153.585 459.856L212.214 518.485L213.353 517.345L154.724 458.717Z" fill="#92B2DD"/>
<path d="M212.214 458.717L153.585 517.345L154.724 518.485L213.353 459.856L212.214 458.717Z" fill="#92B2DD"/>
<path d="M188.79 489.45C189.473 486.554 187.68 483.652 184.785 482.968C181.889 482.285 178.987 484.078 178.303 486.974C177.62 489.869 179.413 492.771 182.309 493.455C185.204 494.138 188.106 492.345 188.79 489.45Z" fill="#294A71"/>
<path d="M417.865 415.653C418.383 417.205 426.758 437.236 426.758 437.236L401.517 454.054L393.28 424.194L417.865 415.653Z" fill="#294A71"/>
<path d="M113.196 396.855H70.631C69.8851 396.855 69.2001 396.443 68.8511 395.783L62.3254 383.457C61.7064 382.289 62.3622 380.852 63.65 380.553C64.5404 380.346 65.4577 380.765 65.8853 381.572L71.2757 391.755C71.6248 392.414 72.3098 392.826 73.0557 392.826H113.195C114.308 392.826 115.209 393.728 115.209 394.84C115.21 395.953 114.309 396.855 113.196 396.855Z" fill="#35A090"/>
<path d="M120.581 382.649H45.1188C43.9321 382.649 42.9707 381.687 42.9707 380.501C42.9707 379.314 43.9329 378.353 45.1188 378.353H120.581C121.768 378.353 122.729 379.314 122.729 380.501C122.729 381.687 121.768 382.649 120.581 382.649Z" fill="#45BC9A"/>
<path d="M311.184 211.468C313.336 206.733 314.771 193.963 302.708 189.515C290.645 185.067 271.008 182.914 263.834 204.007C256.66 225.099 269.43 237.869 270.147 238.587C270.864 239.304 269.86 240.165 268.999 243.034C268.138 245.904 265.269 246.825 265.269 246.825L281.108 255.805C281.108 255.805 289.661 243.465 290.665 242.461C291.669 241.456 297.265 243.609 298.844 243.465C300.081 243.353 305.375 233.715 307.189 228.036C307.189 228.036 309.606 225.565 310.251 224.919C310.896 224.273 310.036 222.874 309.174 222.013C308.321 221.161 309.157 216.278 309.174 216.182C309.773 214.622 310.477 213.022 311.184 211.468Z" fill="#F79E86"/>
<path d="M341.424 285.661C341.424 285.661 349.556 284.67 353.909 280.834C358.262 276.998 370.959 280.238 373.167 283.248C375.375 286.256 370.683 293.398 368.475 292.869C366.267 292.34 368.888 290.885 369.578 289.563C370.269 288.24 370.406 286.917 369.303 285.991C368.198 285.066 367.647 288.372 364.886 289.695C362.126 291.017 356.191 292.472 353.293 291.282C350.395 290.092 343.908 291.679 343.908 291.679L341.424 285.661Z" fill="#C43F52"/>
<path d="M261.299 262.79C259.897 266.079 260.072 269.834 260.164 273.446C260.415 283.305 264.305 293.498 274.901 296.836C295.051 303.184 324.586 299.216 330.935 297.894C337.283 296.572 345.84 295.513 345.288 291.811C344.736 288.108 345.564 281.821 341.148 281.526C336.731 281.231 296.709 289.959 287.047 276.206C283.002 270.448 280.596 261.929 275.07 257.3C271.191 254.053 265.911 256.631 263.096 259.898C262.315 260.807 261.732 261.776 261.299 262.79Z" fill="#45BC9A"/>
<path d="M260.104 248.702C260.104 248.702 264.193 243.537 268.497 244.828C272.801 246.12 282.917 253.438 282.917 255.16C282.917 256.882 281.066 262.477 281.066 262.477L260.104 248.702Z" fill="#B0D9AC"/>
<path d="M258.239 246.908C258.239 246.908 244.751 244.613 232.986 264.126C221.22 283.64 210.97 311.762 209.638 319.798C208.306 327.833 208.881 336.729 212.037 338.738C215.194 340.746 258.239 346.773 265.7 345.051C273.161 343.329 273.161 335.952 273.161 335.952C273.161 335.952 287.631 277.326 284.27 266.996C280.909 256.665 266.561 248.056 258.239 246.908Z" fill="#6FC390"/>
<path d="M235.565 339.421C235.565 339.421 252.571 262.045 260.104 265.812C267.636 269.579 280.14 274.987 281.066 278.202C281.992 281.416 267.59 336.43 267.59 336.43L265.878 336.593C265.878 336.593 280.406 278.044 279.474 277.327C278.541 276.61 260.211 266.889 259.027 267.964C257.843 269.04 249.773 290.24 245.253 306.382C240.733 322.524 237.935 339.421 237.935 339.421H235.565Z" fill="#45BC9A"/>
<path d="M247.652 265.812C247.652 265.812 242.17 283.927 252.787 304.876C263.405 325.824 273.708 333.704 273.708 333.704L281.067 299.758L247.652 265.812Z" fill="#45BC9A"/>
<path d="M248.691 261.624C247.233 265.192 247.415 269.266 247.512 273.185C247.773 283.882 251.816 294.941 262.832 298.563C283.78 305.45 314.487 301.146 321.086 299.711C327.687 298.276 336.583 297.128 336.008 293.11C335.435 289.093 336.295 282.272 331.704 281.952C327.113 281.631 285.504 291.101 275.459 276.18C271.253 269.934 268.753 260.69 263.007 255.669C258.974 252.145 253.486 254.942 250.56 258.487C249.746 259.472 249.14 260.524 248.691 261.624Z" fill="#6FC390"/>
<path d="M290.668 242.46L279.188 240.308L284.503 250.945L290.668 242.46Z" fill="#C43F52"/>
<path d="M313.911 199.127C313.765 200.048 313.184 200.241 312.211 200.091C309.388 199.652 303.258 196.321 294.829 199.416C287.146 202.235 284.67 213.883 283.022 222.217C282.238 226.181 281.644 229.392 280.767 230.55C278.041 234.14 267.241 234.98 261.654 231.987C256.068 228.992 255.37 199.988 263.549 187.935C271.727 175.883 289.806 179.756 289.806 179.756C305.815 178.995 314.484 195.541 313.911 199.127Z" fill="#45BC9A"/>
<path d="M301.375 234.323C300.863 234.323 300.258 234.302 299.594 234.239C297.417 234.031 296.612 232.012 296.579 231.927C296.493 231.705 296.603 231.456 296.825 231.37C297.046 231.285 297.295 231.394 297.381 231.615C297.407 231.681 298.035 233.225 299.675 233.382C301.534 233.561 302.937 233.385 302.951 233.384C303.186 233.352 303.402 233.52 303.432 233.756C303.463 233.992 303.297 234.207 303.061 234.238C303.022 234.242 302.376 234.323 301.375 234.323Z" fill="#C43F52"/>
<path d="M305.966 214.553C305.966 215.662 305.4 216.561 304.701 216.561C304.002 216.561 303.436 215.662 303.436 214.553C303.436 213.443 304.002 212.544 304.701 212.544C305.4 212.544 305.966 213.443 305.966 214.553Z" fill="#23375C"/>
<path d="M301.581 210.953C302.495 209.855 303.909 208.553 305.404 209.454C306.118 209.883 306.768 208.767 306.056 208.338C304.042 207.124 301.982 208.461 300.668 210.039C300.14 210.674 301.049 211.592 301.581 210.953Z" fill="#23375C"/>
<g opacity="0.65">
<path d="M314.524 213.951C313.663 221.699 313.276 225.861 312.105 227.006C310.995 228.1 290.608 227.833 282.916 221.686C284.565 213.352 287.04 201.704 294.724 198.885C303.152 195.79 309.281 199.121 312.106 199.561C312.106 199.561 315.385 206.202 314.524 213.951Z" fill="white"/>
</g>
<path d="M362.608 435.48C362.608 435.48 366.372 439.353 366.934 440.304C367.496 441.255 370.126 444.751 371.552 444.582C372.978 444.413 382.35 440.261 383.795 438.727C385.24 437.194 394.342 434.165 396.894 432.569C399.446 430.973 399.083 426.732 397.329 425.782C395.576 424.831 390.133 427.9 387.854 428.676C385.574 429.452 380.266 429.681 377.322 430.345C374.379 431.008 371.98 431.135 370.806 430.527C369.632 429.919 368.661 429.27 368.661 429.27L362.608 435.48Z" fill="#92B2DD"/>
<path d="M267.591 336.328C267.591 336.328 295.401 332.168 301.427 336.328C307.453 340.488 368.793 427.198 368.793 428.83C368.793 430.462 363.628 435.563 362.767 435.563C361.906 435.563 331.559 418.425 313.695 392.106C295.831 365.787 297.338 364.767 292.818 365.379C288.298 365.992 245.765 367.42 247.446 358.238C249.127 349.057 267.591 336.328 267.591 336.328Z" fill="#23375C"/>
<path d="M335.325 443.163C335.325 443.163 338.5 447.499 338.715 448.569C338.93 449.64 340.256 453.746 341.665 454.014C343.073 454.282 353.35 453.16 355.234 452.14C357.117 451.12 366.763 450.982 369.716 450.235C372.669 449.488 373.743 445.357 372.398 443.929C371.053 442.501 364.865 443.775 362.444 443.827C360.022 443.878 354.911 442.501 351.897 442.245C348.884 441.99 346.566 441.39 345.656 440.46C344.745 439.531 344.041 438.624 344.041 438.624L335.325 443.163Z" fill="#92B2DD"/>
<path d="M212.038 338.516C212.038 338.516 200.559 378.233 227.821 378.233C255.083 378.233 290.38 372.276 291.241 375.662C292.102 379.048 295.832 392.922 305.302 409.516C314.772 426.109 331.703 444.608 334.86 444.608C338.016 444.608 345.764 440.255 344.903 438.623C344.042 436.991 308.745 346.133 301.284 341.236C293.823 336.339 281.197 334.163 257.952 337.428C234.708 340.692 212.038 338.516 212.038 338.516Z" fill="#2D4D9D"/>
<path d="M480.996 472.158L404.541 504.237L404.853 504.98L481.308 472.9L480.996 472.158Z" fill="#92B2DD"/>
<path d="M404.779 472.472L404.474 473.218L481.211 504.626L481.516 503.88L404.779 472.472Z" fill="#92B2DD"/>
<path d="M458.397 450.104L426.732 526.733L427.477 527.041L459.142 450.411L458.397 450.104Z" fill="#92B2DD"/>
<path d="M427.531 450.094L426.786 450.403L458.559 526.991L459.304 526.682L427.531 450.094Z" fill="#92B2DD"/>
<path d="M442.976 436.627C414.277 436.627 391.012 459.892 391.012 488.591C391.012 517.29 414.277 540.555 442.976 540.555C471.675 540.555 494.94 517.29 494.94 488.591C494.94 459.892 471.675 436.627 442.976 436.627ZM442.976 530.049C420.079 530.049 401.518 511.487 401.518 488.592C401.518 465.695 420.079 447.135 442.976 447.135C465.872 447.135 484.433 465.696 484.433 488.592C484.433 511.487 465.872 530.049 442.976 530.049Z" fill="#294A71"/>
<path d="M443.78 447.134H442.169V530.049H443.78V447.134Z" fill="#92B2DD"/>
<path d="M484.43 487.786H401.516V489.397H484.43V487.786Z" fill="#92B2DD"/>
<path d="M414.209 458.718L413.07 459.858L471.698 518.486L472.838 517.347L414.209 458.718Z" fill="#92B2DD"/>
<path d="M471.698 458.718L413.07 517.347L414.209 518.486L472.838 459.858L471.698 458.718Z" fill="#92B2DD"/>
<path d="M413.088 451.666L442.301 489.263L445.255 487.382L431.291 445.758L413.088 451.666Z" fill="#92B2DD"/>
<path d="M448.288 489.462C448.971 486.567 447.178 483.665 444.283 482.981C441.387 482.297 438.485 484.091 437.802 486.986C437.118 489.882 438.911 492.784 441.807 493.467C444.702 494.151 447.604 492.358 448.288 489.462Z" fill="#294A71"/>
<path d="M254.789 390.84H112.189C108.741 390.84 105.945 388.044 105.945 384.595C105.945 381.147 108.741 378.352 112.189 378.352H254.789C258.237 378.352 261.033 381.148 261.033 384.595C261.032 388.044 258.237 390.84 254.789 390.84Z" fill="#B0D9AC"/>
<path d="M438.277 415.679C432.369 422.394 409.271 418.9 401.751 431.525C394.232 444.145 385.641 470.732 375.971 471.808C366.305 472.88 110.021 471.808 110.021 471.808V390.838H256.201C256.201 390.838 269.897 442.402 279.159 450.054C288.425 457.709 352.07 453.276 362.543 446.832C371.126 441.552 378.987 426.172 379.919 407.493C380.125 403.374 379.993 399.096 379.461 394.732C376.507 370.563 360.129 308.262 361.2 301.55C362.275 294.834 367.376 283.285 375.703 280.603C384.026 277.916 392.353 280.331 392.621 280.603C392.888 280.871 393.964 297.253 392.621 299.399C391.277 301.55 386.176 304.233 386.176 308.798C386.176 313.363 416.254 361.434 426.46 378.355C436.662 395.271 444.181 408.967 438.277 415.679Z" fill="#45BC9A"/>
<path d="M392.623 299.801C396.275 299.801 399.236 295.503 399.236 290.201C399.236 284.898 396.275 280.6 392.623 280.6C388.971 280.6 386.01 284.898 386.01 290.201C386.01 295.503 388.971 299.801 392.623 299.801Z" fill="#B0D9AC"/>
<path d="M404.707 386.945C404.707 386.945 420.282 396.613 416.254 402.521C412.226 408.429 399.068 402.252 396.382 394.733C393.696 387.214 400.286 383.808 404.707 386.945Z" fill="#B0D9AC"/>
<path d="M385.48 483.694C382.503 479.747 380.834 471.013 382.602 466.436C386.626 456.02 396.686 441.066 413.44 430.182C437.667 414.443 470.593 425.348 477.53 432.062C482.042 436.43 485.736 444.215 483.995 450.477C483.861 450.96 483.67 451.467 483.246 451.752C482.851 452.018 482.338 452.035 481.857 452.037C463.848 452.109 446.735 449.056 429.532 456.5C405.949 466.705 391.522 491.68 388.47 487.652C387.545 486.433 386.495 485.041 385.48 483.694Z" fill="#B0D9AC"/>
<path d="M175.938 242.198H81.8737C79.0384 242.198 76.74 239.899 76.74 237.064V233.17C76.74 230.334 79.0384 228.036 81.8737 228.036H175.938C178.773 228.036 181.071 230.334 181.071 233.17V237.064C181.071 239.899 178.773 242.198 175.938 242.198Z" fill="#FFD38E"/>
<path d="M172.37 242.198H83.3865V272.007H172.37V242.198Z" fill="#F69782"/>
<path d="M136.821 253.548H119.174C117.318 253.548 115.812 252.043 115.812 250.186C115.812 248.329 117.317 246.825 119.174 246.825H136.821C138.677 246.825 140.183 248.329 140.183 250.186C140.183 252.043 138.678 253.548 136.821 253.548Z" fill="#D65F48"/>
<path d="M127.292 273.752C124.771 273.752 122.727 271.708 122.727 269.187V228.099C122.727 225.578 124.771 223.534 127.292 223.534C129.813 223.534 131.857 225.578 131.857 228.099V269.187C131.857 271.708 129.813 273.752 127.292 273.752Z" fill="#D65F48"/>
<path d="M197.778 378.352H62.0477C57.5924 378.352 53.9805 374.74 53.9805 370.285V280.074C53.9805 275.619 57.5924 272.007 62.0477 272.007H197.778C202.233 272.007 205.845 275.619 205.845 280.074V370.285C205.845 374.74 202.233 378.352 197.778 378.352Z" fill="#FFD38E"/>
<path d="M92.9396 306.112H67.9238C66.3037 306.112 64.9902 304.799 64.9902 303.179V292.932C64.9902 291.312 66.3037 289.999 67.9238 289.999H92.9396C94.5597 289.999 95.8732 291.312 95.8732 292.932V303.179C95.8732 304.799 94.5597 306.112 92.9396 306.112Z" fill="#F69782"/>
<path d="M191.228 368.953H145.533C143.913 368.953 142.6 367.64 142.6 366.02V341.433C142.6 339.813 143.913 338.499 145.533 338.499H191.228C192.848 338.499 194.161 339.813 194.161 341.433V366.02C194.161 367.64 192.848 368.953 191.228 368.953Z" fill="#F69782"/>
<path d="M188.005 365.89H148.756C147.136 365.89 145.822 364.577 145.822 362.957V344.494C145.822 342.874 147.136 341.56 148.756 341.56H188.005C189.625 341.56 190.938 342.874 190.938 344.494V362.957C190.938 364.577 189.625 365.89 188.005 365.89Z" fill="white"/>
<path d="M90.9851 339.421H67.4611C66.0963 339.421 64.9902 338.315 64.9902 336.95C64.9902 335.586 66.097 334.48 67.4611 334.48H90.9851C92.35 334.48 93.4558 335.586 93.4558 336.95C93.4558 338.315 92.35 339.421 90.9851 339.421Z" fill="#F69782"/>
<path d="M77.9609 351.497H67.4611C66.0963 351.497 64.9902 350.391 64.9902 349.026C64.9902 347.661 66.097 346.555 67.4611 346.555H77.9609C79.3257 346.555 80.4316 347.661 80.4316 349.026C80.4316 350.391 79.3257 351.497 77.9609 351.497Z" fill="#F69782"/>
<path d="M190.08 294.489H150.913C149.548 294.489 148.442 293.382 148.442 292.018C148.442 290.653 149.549 289.547 150.913 289.547H190.08C191.445 289.547 192.551 290.654 192.551 292.018C192.551 293.383 191.445 294.489 190.08 294.489Z" fill="#F69782"/>
<path d="M169.898 306.565H150.913C149.548 306.565 148.442 305.459 148.442 304.094C148.442 302.729 149.549 301.623 150.913 301.623H169.898C171.263 301.623 172.369 302.729 172.369 304.094C172.369 305.459 171.263 306.565 169.898 306.565Z" fill="#F69782"/>
<path d="M127.292 393.659C124.771 393.659 122.727 391.615 122.727 389.094V274.693C122.727 272.171 124.771 270.127 127.292 270.127C129.813 270.127 131.857 272.171 131.857 274.693V389.094C131.857 391.615 129.813 393.659 127.292 393.659Z" fill="#F69782"/>
<path d="M360.73 290.172L375.269 289.761C375.854 289.744 376.337 290.214 376.337 290.798V291.21C376.337 291.783 375.872 292.248 375.299 292.248H360.759C360.186 292.248 359.721 291.783 359.721 291.21C359.721 290.648 360.168 290.188 360.73 290.172Z" fill="#35A090"/>
<path d="M110.018 399.587H223.114C226.214 399.587 228.896 401.745 229.56 404.774L244.339 472.194H116.709L110.018 399.587Z" fill="#35A090"/>
<path d="M242.096 482.7H112.269C107.813 482.7 104.201 479.088 104.201 474.633V456.914C104.201 452.459 107.813 448.847 112.269 448.847H242.096C246.552 448.847 250.163 452.459 250.163 456.914V474.632C250.163 479.088 246.552 482.7 242.096 482.7Z" fill="#B0D9AC"/>
<path d="M222.362 416.157V486.308C222.362 492.536 217.311 497.587 211.083 497.587H85.805C79.5779 497.587 74.5264 492.535 74.5264 486.308V416.157C74.5264 409.929 79.5779 404.878 85.805 404.878H211.083C217.311 404.878 222.362 409.93 222.362 416.157Z" fill="#F69782"/>
<path d="M222.362 418.901V429.455C222.362 443.094 211.361 454.15 197.79 454.15H99.0985C85.5272 454.15 74.5264 443.094 74.5264 429.455V418.901C74.5264 412.642 79.5779 407.566 85.805 407.566H211.083C217.311 407.566 222.362 412.642 222.362 418.901Z" fill="#D65F48"/>
<path d="M95.1365 488.546H84.2179C83.1413 488.546 82.2693 487.674 82.2693 486.598C82.2693 485.521 83.142 484.648 84.2179 484.648H95.1365C96.2131 484.648 97.0851 485.521 97.0851 486.598C97.0851 487.674 96.2131 488.546 95.1365 488.546Z" fill="#D65F48"/>
<path d="M114.761 488.546H103.843C102.766 488.546 101.894 487.674 101.894 486.598C101.894 485.521 102.767 484.648 103.843 484.648H114.761C115.838 484.648 116.71 485.521 116.71 486.598C116.71 487.674 115.838 488.546 114.761 488.546Z" fill="#D65F48"/>
<path d="M134.385 488.546H123.467C122.39 488.546 121.518 487.674 121.518 486.598C121.518 485.521 122.391 484.648 123.467 484.648H134.385C135.462 484.648 136.334 485.521 136.334 486.598C136.334 487.674 135.462 488.546 134.385 488.546Z" fill="#D65F48"/>
<path d="M154.012 488.546H143.093C142.017 488.546 141.145 487.674 141.145 486.598C141.145 485.521 142.017 484.648 143.093 484.648H154.012C155.088 484.648 155.96 485.521 155.96 486.598C155.961 487.674 155.088 488.546 154.012 488.546Z" fill="#D65F48"/>
<path d="M173.637 488.546H162.719C161.642 488.546 160.77 487.674 160.77 486.598C160.77 485.521 161.643 484.648 162.719 484.648H173.637C174.714 484.648 175.586 485.521 175.586 486.598C175.587 487.674 174.714 488.546 173.637 488.546Z" fill="#D65F48"/>
<path d="M193.263 488.546H182.344C181.267 488.546 180.395 487.674 180.395 486.598C180.395 485.521 181.268 484.648 182.344 484.648H193.263C194.339 484.648 195.212 485.521 195.212 486.598C195.212 487.674 194.339 488.546 193.263 488.546Z" fill="#D65F48"/>
<path d="M212.889 488.546H201.971C200.894 488.546 200.022 487.674 200.022 486.598C200.022 485.521 200.895 484.648 201.971 484.648H212.889C213.966 484.648 214.838 485.521 214.838 486.598C214.838 487.674 213.965 488.546 212.889 488.546Z" fill="#D65F48"/>
<path d="M222.362 416.157V426.658C222.362 440.23 211.361 451.23 197.79 451.23H99.0985C85.5272 451.23 74.5264 440.23 74.5264 426.658V416.157C74.5264 409.929 79.5779 404.878 85.805 404.878H211.083C217.311 404.878 222.362 409.93 222.362 416.157Z" fill="#FFD38E"/>
<path d="M218.139 427.427C217.126 427.427 216.306 426.606 216.306 425.593V418.259C216.306 417.247 217.126 416.426 218.139 416.426C219.152 416.426 219.973 417.247 219.973 418.259V425.593C219.973 426.606 219.152 427.427 218.139 427.427Z" fill="#F69782"/>
<path d="M185.706 448.968H170.806C169.793 448.968 168.972 448.147 168.972 447.134C168.972 446.121 169.793 445.301 170.806 445.301H185.706C186.719 445.301 187.539 446.121 187.539 447.134C187.539 448.147 186.718 448.968 185.706 448.968ZM155.906 448.968H141.005C139.992 448.968 139.172 448.147 139.172 447.134C139.172 446.121 139.992 445.301 141.005 445.301H155.906C156.918 445.301 157.739 446.121 157.739 447.134C157.739 448.147 156.918 448.968 155.906 448.968ZM126.104 448.968H111.205C110.192 448.968 109.372 448.147 109.372 447.134C109.372 446.121 110.192 445.301 111.205 445.301H126.104C127.117 445.301 127.938 446.121 127.938 447.134C127.938 448.147 127.117 448.968 126.104 448.968ZM96.3495 448.38C96.2211 448.38 96.0905 448.366 95.9615 448.338C90.5593 447.174 85.6854 444.397 82.237 440.518C81.5637 439.762 81.632 438.603 82.3888 437.93C83.1464 437.257 84.3043 437.325 84.9768 438.082C87.9118 441.382 92.087 443.752 96.733 444.753C97.7231 444.966 98.3523 445.942 98.1396 446.932C97.9541 447.791 97.1943 448.38 96.3495 448.38ZM200.561 448.374C199.717 448.374 198.957 447.787 198.772 446.927C198.558 445.938 199.186 444.962 200.176 444.748C204.82 443.742 208.992 441.369 211.924 438.065C212.596 437.308 213.753 437.238 214.512 437.91C215.269 438.582 215.338 439.742 214.667 440.499C211.223 444.381 206.351 447.163 200.952 448.332C200.821 448.36 200.69 448.374 200.561 448.374Z" fill="#F69782"/>
<path d="M78.7505 427.427C77.7377 427.427 76.917 426.606 76.917 425.593V418.259C76.917 417.247 77.7377 416.426 78.7505 416.426C79.7633 416.426 80.5839 417.247 80.5839 418.259V425.593C80.5839 426.606 79.7633 427.427 78.7505 427.427Z" fill="#F69782"/>
<path d="M152.782 455.895H144.323C142.043 455.895 140.194 454.047 140.194 451.766C140.194 449.486 142.043 447.637 144.323 447.637H152.782C155.062 447.637 156.911 449.486 156.911 451.766C156.911 454.047 155.062 455.895 152.782 455.895Z" fill="white"/>
<g opacity="0.39">
<path d="M386.009 316.145C389.139 320.187 427.992 381.829 424.87 382.055C421.748 382.282 408.369 377.291 403.218 372.622C398.068 367.952 386.009 316.145 386.009 316.145Z" fill="#B0D9AC"/>
</g>
<path d="M380.669 407.593C380.669 407.593 379.046 441.921 371.826 448.847C364.601 455.772 286.655 460.555 278.503 458.707C270.351 456.86 250.164 395.33 250.164 395.33H110.021V390.839H256.201C256.201 390.839 269.897 442.403 279.159 450.055C288.425 457.71 352.07 453.276 362.543 446.833C371.126 441.553 378.987 426.173 379.919 407.493L380.669 407.593Z" fill="#35A090"/>
<path d="M514.059 133.558V254.528C514.059 257.473 511.745 259.857 508.888 259.857H344.788C343.332 259.857 342.013 259.235 341.074 258.236C340.169 257.272 339.617 255.967 339.617 254.528V133.558C339.617 132.115 340.169 130.81 341.074 129.85C342.013 128.852 343.332 128.23 344.788 128.23H508.888C511.746 128.23 514.059 130.615 514.059 133.558Z" fill="#45BC9A"/>
<path d="M508.364 139.478V249.211C508.364 251.882 506.202 254.045 503.531 254.045H350.147C348.785 254.045 347.553 253.481 346.675 252.574C345.828 251.7 345.313 250.516 345.313 249.211V139.478C345.313 138.169 345.829 136.985 346.675 136.115C347.553 135.208 348.785 134.644 350.147 134.644H503.531C506.201 134.644 508.364 136.807 508.364 139.478Z" fill="#E9EEF8"/>
<path d="M452.101 167.599L431.327 186.024L431.339 186.032L403.871 210.197L462.227 254.045H452.306L399.299 214.218L354.025 254.045H350.146C348.784 254.045 347.552 253.481 346.674 252.574L422.078 186.242L357.8 134.644H367.323L426.614 182.242L480.282 134.644H489.261L456.701 163.523L508.363 198.657V205.868L452.101 167.599Z" fill="white"/>
<path d="M425.538 207.572L451.565 184.075C452.272 183.437 453.327 183.377 454.102 183.929L495.127 213.157C496.15 213.887 496.271 215.362 495.38 216.248L468.565 242.93C467.831 243.659 466.666 243.72 465.86 243.071L425.624 210.658C424.653 209.876 424.611 208.408 425.538 207.572Z" fill="#CDDDF1"/>
<path d="M375.075 250.469L400.245 229.086C400.967 228.472 402.019 228.44 402.777 229.009L431.259 250.393C432.818 251.563 431.99 254.045 430.041 254.045H376.39C374.5 254.045 373.635 251.691 375.075 250.469Z" fill="#6FC390"/>
<path d="M382.836 173.021L348.536 197.962C347.195 198.937 345.313 197.978 345.313 196.32V139.478C345.313 139.465 345.313 139.452 345.313 139.44C345.327 137.698 347.449 136.835 348.725 138.02L383.025 169.893C383.96 170.762 383.87 172.27 382.836 173.021Z" fill="#CDDDF1"/>
<path d="M394.9 199.486L382.43 185.761C381.709 184.967 380.495 184.871 379.658 185.542L366.988 195.698C366.069 196.434 365.968 197.793 366.765 198.658L379.642 212.608C380.379 213.406 381.615 213.483 382.444 212.78L394.709 202.4C395.586 201.658 395.673 200.336 394.9 199.486Z" fill="#6FC390"/>
<path d="M399.485 198.359L408.445 190.776C409.403 189.965 409.403 188.489 408.446 187.678L394.431 175.807C393.69 175.179 392.607 175.164 391.85 175.771L384.486 181.674C383.571 182.407 383.466 183.759 384.257 184.625C388.255 188.997 392.739 193.896 396.683 198.185C397.418 198.987 398.654 199.062 399.485 198.359Z" fill="#6FC390"/>
<path d="M359.876 201.399L346.071 212.465C345.591 212.85 345.311 213.432 345.311 214.048L345.31 239.836C345.31 241.563 347.332 242.501 348.651 241.384L375.76 218.439C376.652 217.684 376.724 216.332 375.915 215.487L362.612 201.579C361.884 200.819 360.697 200.741 359.876 201.399Z" fill="#6FC390"/>
<path d="M465.217 138.228C451.242 149.943 433.05 165.261 428.117 169.417C427.372 170.044 426.289 170.052 425.533 169.438L387.125 138.249C385.642 137.044 386.494 134.644 388.404 134.644H463.911C465.807 134.644 466.67 137.01 465.217 138.228Z" fill="#CDDDF1"/>
<path d="M508.364 136.674V184.649C508.364 186.275 506.549 187.242 505.201 186.333C494.647 179.209 476.135 167.001 469.842 162.857C468.742 162.132 468.612 160.569 469.581 159.674C474.492 155.138 487.808 142.859 496.354 135.164C496.726 134.829 497.209 134.644 497.71 134.644H506.333C507.455 134.644 508.364 135.553 508.364 136.674Z" fill="#6FC390"/>
<path d="M427.184 103.889C398.355 103.889 417.943 139.829 424.963 151.349C425.966 152.995 428.362 152.972 429.331 151.305C436.054 139.737 454.673 103.889 427.184 103.889ZM426.839 126.647C423.269 126.647 420.375 123.753 420.375 120.183C420.375 116.614 423.269 113.719 426.839 113.719C430.408 113.719 433.302 116.613 433.302 120.183C433.302 123.753 430.408 126.647 426.839 126.647Z" fill="#45BC9A"/>
<path d="M550.545 549.955H2.93354C1.31349 549.955 0 548.642 0 547.021V543.489C0 541.869 1.31349 540.556 2.93354 540.556H550.545C552.165 540.556 553.479 541.869 553.479 543.489V547.021C553.479 548.642 552.165 549.955 550.545 549.955Z" fill="#92B2DD"/>
<path d="M316.896 575.595H51.6884C50.0684 575.595 48.7549 574.281 48.7549 572.661V569.129C48.7549 567.509 50.0684 566.196 51.6884 566.196H316.896C318.516 566.196 319.83 567.509 319.83 569.129V572.661C319.83 574.281 318.516 575.595 316.896 575.595Z" fill="#E9EEF8"/>
<path d="M498.003 575.595H351.825C350.205 575.595 348.891 574.281 348.891 572.661V569.129C348.891 567.509 350.205 566.196 351.825 566.196H498.003C499.623 566.196 500.937 567.509 500.937 569.129V572.661C500.937 574.281 499.623 575.595 498.003 575.595Z" fill="#E9EEF8"/>
<path d="M366.892 601.235H220.714C219.094 601.235 217.78 599.921 217.78 598.301V594.769C217.78 593.149 219.094 591.836 220.714 591.836H366.892C368.512 591.836 369.826 593.149 369.826 594.769V598.301C369.826 599.921 368.512 601.235 366.892 601.235Z" fill="#E9EEF8"/>
<path d="M335.382 286.276C335.382 286.276 339.924 286.011 344.449 281.85C348.974 277.689 362.175 281.205 364.471 284.469C366.766 287.733 361.888 295.481 359.592 294.907C357.297 294.333 360.023 292.754 360.74 291.32C361.457 289.885 361.601 288.449 360.453 287.445C359.305 286.441 358.731 290.029 355.862 291.464C352.992 292.898 346.823 294.477 343.81 293.186C340.796 291.894 336.005 293.111 336.005 293.111L335.382 286.276Z" fill="#F79E86"/>
<path d="M365.043 291.304C365.043 293.596 363.186 295.453 360.895 295.453C358.604 295.453 356.747 293.596 356.747 291.304C356.747 289.013 358.604 287.156 360.895 287.156C363.186 287.156 365.043 289.013 365.043 291.304Z" fill="#B0D9AC"/>
</svg>
