<svg width="80" height="80" viewBox="0 0 80 80" fill="none" xmlns="http://www.w3.org/2000/svg">
<rect width="80" height="80" rx="40" fill="#0155A5"/>
<path d="M22.2052 56.6102H22.2055C23.1098 56.6092 23.9768 56.2495 24.6162 55.61C25.1938 55.0322 25.5431 54.2688 25.6058 53.4599C26.8743 53.562 28.126 53.8851 29.2682 54.4334L38.7182 58.9706C39.3845 59.2905 40.1031 59.4512 40.8232 59.4512H40.8234C41.515 59.4508 42.1985 59.3029 42.8284 59.0173L60.4863 51.0242L60.4864 51.0245L60.498 51.0185C60.8394 50.842 61.0936 50.5292 61.1975 50.1597L61.1975 50.1595C61.2488 49.9763 61.2622 49.7847 61.2368 49.5962C61.2114 49.4077 61.1478 49.2264 61.0499 49.0633L61.0495 49.0627C59.6428 46.7355 56.9949 45.5011 54.3335 45.9179L46.0023 46.907C46.0697 46.6359 46.1042 46.3571 46.1048 46.0767V46.076C46.1038 45.1504 45.7357 44.2631 45.0812 43.6087C44.4267 42.9542 43.5394 42.5861 42.6139 42.585H42.6136H38.0838C37.2169 41.7282 36.1919 41.0475 35.0653 40.5808C33.9139 40.1039 32.6794 39.8601 31.4331 39.8634H25.616V39.7535V39.7532C25.6151 38.8489 25.2556 37.9818 24.6162 37.3423C23.9768 36.7028 23.1098 36.3431 22.2055 36.342H22.2052H19.6C19.3746 36.342 19.1584 36.4316 18.999 36.591H18.999C18.8396 36.7504 18.75 36.9666 18.75 37.192V55.7603C18.75 55.9857 18.8396 56.2019 18.999 56.3613C19.1584 56.5207 19.3746 56.6102 19.6 56.6102H22.2052ZM57.4178 47.9867C58.2213 48.3524 58.9115 48.9245 59.4194 49.6423L42.1277 57.4687L42.1276 57.4688C41.7068 57.6596 41.2493 57.7557 40.7873 57.7504C40.3253 57.7451 39.8701 57.6386 39.4538 57.4382L39.4536 57.4381L30.0036 52.9009L30.0032 52.9007C28.6258 52.2422 27.1375 51.8488 25.616 51.7404V41.564L31.4338 41.5634C33.5131 41.5634 35.4679 42.3729 36.9384 43.8434L37.1301 44.0352C37.209 44.1142 37.3026 44.177 37.4058 44.2199C37.5089 44.2628 37.6194 44.2849 37.7311 44.285H37.7314H42.6136C43.6011 44.285 44.4048 45.0887 44.4048 46.0763C44.4048 47.0637 43.6012 47.8668 42.6136 47.8668H32.0494C31.824 47.8668 31.6078 47.9564 31.4484 48.1158C31.289 48.2752 31.1994 48.4914 31.1994 48.7169C31.1994 48.9423 31.289 49.1585 31.4484 49.3179C31.6078 49.4773 31.824 49.5669 32.0494 49.5669H42.6136C43.4299 49.5668 44.2192 49.2793 44.8437 48.7564L54.5603 47.6031L54.5603 47.6033L54.5702 47.6017C55.5366 47.4474 56.5271 47.5813 57.4178 47.9867ZM20.45 38.042H22.2049C22.6586 38.0426 23.0936 38.2231 23.4144 38.544C23.7352 38.8649 23.9156 39.2999 23.916 39.7537V53.1986C23.9156 53.6524 23.7352 54.0874 23.4144 54.4083C23.0936 54.7292 22.6586 54.9097 22.2049 54.9102H20.45V38.042ZM59.8 20.55H33.4C32.6001 20.55 31.95 21.2002 31.95 22V37.6C31.95 38.3999 32.6001 39.05 33.4 39.05H59.8C60.5999 39.05 61.25 38.3999 61.25 37.6V22C61.25 21.2002 60.5999 20.55 59.8 20.55ZM59.55 22.25V25.4059C58.7775 25.2411 58.0668 24.8561 57.5053 24.2947C56.9439 23.7333 56.559 23.0225 56.3941 22.25H59.55ZM33.65 22.25H36.8059C36.641 23.0225 36.2561 23.7333 35.6947 24.2947C35.1332 24.8561 34.4225 25.2411 33.65 25.4059V22.25ZM33.65 37.35V34.1942C34.4225 34.359 35.1332 34.744 35.6947 35.3054C36.2561 35.8668 36.641 36.5775 36.8059 37.35H33.65ZM38.5372 37.35C38.3535 36.1215 37.7805 34.9819 36.8993 34.1008C36.0181 33.2196 34.8786 32.6465 33.65 32.4628V27.1372C34.8786 26.9536 36.0181 26.3805 36.8993 25.4993C37.7805 24.6182 38.3535 23.4786 38.5372 22.25H54.6628C54.8465 23.4786 55.4195 24.6182 56.3007 25.4993C57.1819 26.3805 58.3215 26.9536 59.55 27.1372V32.4628C58.3215 32.6465 57.1819 33.2196 56.3007 34.1008C55.4195 34.9819 54.8465 36.1215 54.6628 37.35H38.5372ZM59.55 37.35H56.3941C56.559 36.5775 56.9439 35.8668 57.5053 35.3054C58.0668 34.744 58.7775 34.359 59.55 34.1942V37.35Z" fill="white" stroke="white" stroke-width="0.5"/>
<path d="M38.1996 27.7498H39.9996C40.225 27.7498 40.4412 27.8394 40.6007 27.9988C40.7601 28.1582 40.8496 28.3744 40.8496 28.5998C40.8496 28.8252 40.7601 29.0414 40.6007 29.2008C40.4412 29.3603 40.225 29.4498 39.9996 29.4498H38.1996C37.9742 29.4498 37.758 29.3603 37.5986 29.2008M38.1996 27.7498L37.5986 29.2008C37.5986 29.2008 37.5986 29.2008 37.5986 29.2008M38.1996 27.7498C37.9742 27.7498 37.758 27.8394 37.5986 27.9988M38.1996 27.7498L37.5986 27.9988M37.5986 29.2008C37.4392 29.0414 37.3496 28.8252 37.3496 28.5998C37.3496 28.3744 37.4392 28.1582 37.5986 27.9988M37.5986 29.2008V27.9988M38.1996 30.1498H39.9996C40.225 30.1498 40.4412 30.2394 40.6007 30.3988C40.7601 30.5582 40.8496 30.7744 40.8496 30.9998C40.8496 31.2252 40.7601 31.4414 40.6007 31.6008C40.4412 31.7603 40.225 31.8498 39.9996 31.8498H38.1996C37.9742 31.8498 37.758 31.7603 37.5986 31.6008M38.1996 30.1498L37.5986 31.6008C37.5986 31.6008 37.5986 31.6008 37.5986 31.6008M38.1996 30.1498C37.9742 30.1498 37.758 30.2394 37.5986 30.3988M38.1996 30.1498L37.5986 30.3988M37.5986 31.6008C37.4392 31.4414 37.3496 31.2252 37.3496 30.9998C37.3496 30.7744 37.4392 30.5582 37.5986 30.3988M37.5986 31.6008V30.3988M46.5996 26.2008C47.4787 26.2008 48.1496 26.8414 48.1496 27.575C48.1496 27.8004 48.2392 28.0166 48.3986 28.176L48.5753 27.9993L48.3986 28.176C48.558 28.3355 48.7742 28.425 48.9996 28.425C49.225 28.425 49.4412 28.3355 49.6007 28.176C49.7601 28.0166 49.8496 27.8004 49.8496 27.575C49.8496 26.1481 48.8221 24.9598 47.4496 24.6077V24.3998C47.4496 24.1744 47.3601 23.9582 47.2007 23.7988C47.0412 23.6394 46.825 23.5498 46.5996 23.5498C46.3742 23.5498 46.158 23.6394 45.9986 23.7988V23.7988C45.8392 23.9582 45.7496 24.1744 45.7496 24.3998V24.6077C44.3771 24.9598 43.3496 26.1481 43.3496 27.575C43.3496 29.2846 44.8217 30.6498 46.5996 30.6498C47.4786 30.6498 48.1496 31.2903 48.1496 32.0246C48.1496 32.7582 47.4787 33.3988 46.5996 33.3988C45.7205 33.3988 45.0496 32.7582 45.0496 32.0246C45.0496 31.7992 44.9601 31.583 44.8007 31.4236C44.6412 31.2642 44.425 31.1746 44.1996 31.1746C43.9742 31.1746 43.758 31.2642 43.5986 31.4236C43.4392 31.583 43.3496 31.7992 43.3496 32.0246C43.3496 33.4515 44.3771 34.6398 45.7496 34.9919V35.1998C45.7496 35.4252 45.8392 35.6414 45.9986 35.8008C46.158 35.9603 46.3742 36.0498 46.5996 36.0498C46.825 36.0498 47.0412 35.9603 47.2007 35.8008C47.3601 35.6414 47.4496 35.4252 47.4496 35.1998V34.9919C48.8221 34.6398 49.8496 33.4515 49.8496 32.0246C49.8496 30.315 48.3775 28.9498 46.5996 28.9498C45.7206 28.9498 45.0496 28.3093 45.0496 27.575C45.0496 26.8414 45.7205 26.2008 46.5996 26.2008ZM54.9996 27.7498H53.1996C52.9742 27.7498 52.758 27.8394 52.5986 27.9988C52.4392 28.1582 52.3496 28.3744 52.3496 28.5998C52.3496 28.8252 52.4392 29.0414 52.5986 29.2008C52.758 29.3603 52.9742 29.4498 53.1996 29.4498H54.9996C55.225 29.4498 55.4412 29.3603 55.6007 29.2008C55.7601 29.0414 55.8496 28.8252 55.8496 28.5998C55.8496 28.3744 55.7601 28.1582 55.6007 27.9988C55.4412 27.8394 55.225 27.7498 54.9996 27.7498ZM54.9996 30.1498H53.1996C52.9742 30.1498 52.758 30.2394 52.5986 30.3988C52.4392 30.5582 52.3496 30.7744 52.3496 30.9998C52.3496 31.2252 52.4392 31.4414 52.5986 31.6008C52.758 31.7603 52.9742 31.8498 53.1996 31.8498H54.9996C55.225 31.8498 55.4412 31.7603 55.6007 31.6008C55.7601 31.4414 55.8496 31.2252 55.8496 30.9998C55.8496 30.7744 55.7601 30.5582 55.6007 30.3988C55.4412 30.2394 55.225 30.1498 54.9996 30.1498Z" fill="white" stroke="white" stroke-width="0.5"/>
</svg>
