<svg width="80" height="80" viewBox="0 0 80 80" fill="none" xmlns="http://www.w3.org/2000/svg">
<rect width="80" height="80" rx="40" fill="#0155A5"/>
<g clip-path="url(#clip0_54_437)">
<path d="M53.6725 48.8184H36.4611C34.8948 48.8072 33.3778 48.2697 32.1539 47.2921C30.9301 46.3145 30.0706 44.9538 29.7137 43.4286L26.9708 32.2789C26.7185 31.2436 26.7055 30.1644 26.933 29.1234C27.1605 28.0824 27.6223 27.1069 28.2835 26.2712C28.9446 25.4355 29.7876 24.7616 30.7484 24.3007C31.7092 23.8398 32.7624 23.6041 33.828 23.6115H56.4565C57.5221 23.6041 58.5753 23.8398 59.5361 24.3007C60.4969 24.7616 61.3399 25.4355 62.001 26.2712C62.6622 27.1069 63.1241 28.0824 63.3515 29.1234C63.579 30.1644 63.566 31.2436 63.3137 32.2789L60.5708 43.4561C60.2005 45.0002 59.3157 46.3723 58.062 47.3469C56.8083 48.3214 55.2603 48.8404 53.6725 48.8184ZM33.7457 27.0401C33.2036 27.0417 32.6689 27.166 32.1817 27.4036C31.6945 27.6412 31.2673 27.986 30.9322 28.4121C30.5971 28.8382 30.3628 29.3346 30.2468 29.8642C30.1307 30.3937 30.136 30.9426 30.2623 31.4698L33.0051 42.6469C33.1909 43.4302 33.6362 44.1276 34.2687 44.6256C34.9012 45.1236 35.6835 45.3929 36.4885 45.3898H53.6725C54.4775 45.3929 55.2599 45.1236 55.8924 44.6256C56.5249 44.1276 56.9702 43.4302 57.156 42.6469L59.8988 31.4698C60.0278 30.9424 60.0351 30.3925 59.9202 29.8619C59.8053 29.3312 59.5711 28.8337 59.2355 28.4069C58.8999 27.9801 58.4716 27.6352 57.983 27.3984C57.4944 27.1616 56.9583 27.0391 56.4154 27.0401H33.7457Z" fill="white"/>
<path d="M28.9738 35.2C28.5821 35.1953 28.2039 35.0567 27.902 34.8072C27.6001 34.5577 27.3927 34.2123 27.3144 33.8285L24.8595 23.1725C24.6328 22.2018 24.0834 21.3368 23.3011 20.7189C22.5189 20.1011 21.5501 19.767 20.5532 19.7714H18.3178C17.8631 19.7714 17.4271 19.5908 17.1056 19.2693C16.7841 18.9478 16.6035 18.5118 16.6035 18.0571C16.6035 17.6025 16.7841 17.1664 17.1056 16.8449C17.4271 16.5234 17.8631 16.3428 18.3178 16.3428H20.5532C22.3248 16.3366 24.0462 16.9314 25.4361 18.0299C26.8261 19.1284 27.8025 20.6657 28.2058 22.3908L30.6469 33.0468C30.6998 33.2657 30.7086 33.4929 30.673 33.7152C30.6373 33.9376 30.5578 34.1506 30.4392 34.342C30.3205 34.5333 30.165 34.6992 29.9818 34.83C29.7985 34.9608 29.5911 35.054 29.3715 35.104C29.2427 35.1497 29.1094 35.1819 28.9738 35.2ZM36.7224 63.6571C35.6374 63.6571 34.5768 63.3354 33.6747 62.7326C32.7726 62.1298 32.0694 61.2731 31.6542 60.2707C31.239 59.2683 31.1304 58.1653 31.3421 57.1012C31.5537 56.0371 32.0762 55.0596 32.8434 54.2924C33.6106 53.5252 34.588 53.0028 35.6522 52.7911C36.7163 52.5794 37.8193 52.688 38.8217 53.1032C39.824 53.5185 40.6808 54.2216 41.2836 55.1237C41.8864 56.0258 42.2081 57.0864 42.2081 58.1714C42.2081 59.6263 41.6301 61.0216 40.6014 62.0504C39.5726 63.0791 38.1773 63.6571 36.7224 63.6571ZM36.7224 56.0594C36.3101 56.0594 35.9071 56.1816 35.5642 56.4107C35.2214 56.6398 34.9543 56.9653 34.7965 57.3462C34.6387 57.7271 34.5974 58.1463 34.6779 58.5506C34.7583 58.955 34.9568 59.3264 35.2484 59.618C35.5399 59.9095 35.9113 60.108 36.3157 60.1885C36.7201 60.2689 37.1392 60.2276 37.5201 60.0699C37.901 59.9121 38.2266 59.6449 38.4556 59.3021C38.6847 58.9593 38.8069 58.5562 38.8069 58.144C38.8069 57.5911 38.5873 57.0609 38.1964 56.6699C37.8055 56.279 37.2752 56.0594 36.7224 56.0594ZM55.6755 63.6571C54.5905 63.6571 53.5299 63.3354 52.6278 62.7326C51.7257 62.1298 51.0226 61.2731 50.6074 60.2707C50.1922 59.2683 50.0835 58.1653 50.2952 57.1012C50.5069 56.0371 51.0293 55.0596 51.7965 54.2924C52.5637 53.5252 53.5412 53.0028 54.6053 52.7911C55.6694 52.5794 56.7724 52.688 57.7748 53.1032C58.7772 53.5185 59.6339 54.2216 60.2367 55.1237C60.8395 56.0258 61.1612 57.0864 61.1612 58.1714C61.1612 59.6263 60.5833 61.0216 59.5545 62.0504C58.5257 63.0791 57.1304 63.6571 55.6755 63.6571ZM55.6755 56.0594C55.2638 56.0621 54.8621 56.1867 54.5212 56.4174C54.1802 56.648 53.9151 56.9745 53.7594 57.3557C53.6038 57.7368 53.5644 58.1555 53.6464 58.559C53.7284 58.9624 53.928 59.3326 54.2201 59.6228C54.5121 59.9129 54.8836 60.1101 55.2876 60.1894C55.6916 60.2688 56.11 60.2267 56.4901 60.0685C56.8702 59.9103 57.195 59.6432 57.4234 59.3006C57.6519 58.9581 57.7738 58.5557 57.7738 58.144C57.7738 57.8691 57.7194 57.5969 57.6138 57.343C57.5082 57.0892 57.3534 56.8588 57.1584 56.6651C56.9634 56.4713 56.732 56.3181 56.4775 56.2141C56.223 56.1102 55.9504 56.0576 55.6755 56.0594Z" fill="white"/>
<path d="M55.675 56.0594H32.827C31.4122 56.0594 30.0552 55.4973 29.0547 54.4968C28.0543 53.4963 27.4922 52.1394 27.4922 50.7245C27.4922 49.3096 28.0543 47.9527 29.0547 46.9522C30.0552 45.9517 31.4122 45.3896 32.827 45.3896H36.4613C36.916 45.3896 37.352 45.5703 37.6735 45.8917C37.995 46.2132 38.1756 46.6493 38.1756 47.1039C38.1756 47.5586 37.995 47.9946 37.6735 48.3161C37.352 48.6376 36.916 48.8182 36.4613 48.8182H32.827C32.3215 48.8182 31.8366 49.0191 31.4791 49.3766C31.1216 49.7341 30.9208 50.2189 30.9208 50.7245C30.9208 51.2301 31.1216 51.715 31.4791 52.0725C31.8366 52.43 32.3215 52.6308 32.827 52.6308H55.675C56.1297 52.6308 56.5657 52.8114 56.8872 53.1329C57.2087 53.4544 57.3893 53.8904 57.3893 54.3451C57.3893 54.7997 57.2087 55.2358 56.8872 55.5573C56.5657 55.8788 56.1297 56.0594 55.675 56.0594Z" fill="white"/>
</g>
<defs>
<clipPath id="clip0_54_437">
<rect width="48" height="48" fill="white" transform="translate(16 16)"/>
</clipPath>
</defs>
</svg>
