<svg width="86" height="86" viewBox="0 0 86 86" fill="none" xmlns="http://www.w3.org/2000/svg">
<circle cx="43.0112" cy="43.2461" r="42.5" fill="#E6ECF2"/>
<path d="M47.9645 28.1232C50.4026 28.7775 52.6257 30.0616 54.4107 31.8466C56.1957 33.6316 57.4798 35.8547 58.1341 38.2928M46.4732 33.6752C47.9396 34.0646 49.2769 34.8348 50.3497 35.9076C51.4226 36.9804 52.1927 38.3178 52.5822 39.7841M35.9442 43.3597C37.4233 46.4142 39.8932 48.8778 42.9515 50.3491C43.1771 50.4559 43.4267 50.5021 43.6755 50.4832C43.9244 50.4643 44.1641 50.3809 44.371 50.2413L48.8629 47.2407C49.0613 47.1061 49.2906 47.0239 49.5294 47.0019C49.7682 46.98 50.0087 47.0188 50.2284 47.1149L58.6372 50.7264C58.9246 50.846 59.1647 51.0568 59.3205 51.3262C59.4764 51.5957 59.5393 51.9089 59.4997 52.2177C59.2331 54.2979 58.2178 56.2097 56.6436 57.5953C55.0694 58.981 53.0443 59.7456 50.9471 59.7461C44.4663 59.7461 38.2509 57.1716 33.6683 52.589C29.0857 48.0064 26.5112 41.791 26.5112 35.3102C26.5117 33.213 27.2763 31.1879 28.662 29.6137C30.0477 28.0395 31.9595 27.0242 34.0396 26.7577C34.3484 26.718 34.6616 26.7809 34.9311 26.9368C35.2006 27.0926 35.4113 27.3327 35.5309 27.6201L39.1424 36.0469C39.2363 36.2631 39.2756 36.4991 39.2568 36.7341C39.238 36.9691 39.1617 37.1959 39.0346 37.3945L36.034 41.9582C35.9004 42.1646 35.822 42.4019 35.8063 42.6472C35.7906 42.8926 35.8381 43.1379 35.9442 43.3597Z" stroke="#0152A8" stroke-width="2" stroke-linecap="round" stroke-linejoin="round"/>
</svg>
