<svg width="86" height="86" viewBox="0 0 86 86" fill="none" xmlns="http://www.w3.org/2000/svg">
<circle cx="43.3369" cy="43.2461" r="42.5" fill="#E6ECF2"/>
<path d="M32.3369 59.7461H55.9083" stroke="#0152A8" stroke-width="2" stroke-linecap="round" stroke-linejoin="round"/>
<path d="M43.3364 44.0316C45.94 44.0316 48.0506 41.9209 48.0506 39.3173C48.0506 36.7137 45.94 34.603 43.3364 34.603C40.7327 34.603 38.6221 36.7137 38.6221 39.3173C38.6221 41.9209 40.7327 44.0316 43.3364 44.0316Z" stroke="#0152A8" stroke-width="2" stroke-linecap="round" stroke-linejoin="round"/>
<path d="M55.9075 39.4384C55.9075 50.8615 43.3361 59.7461 43.3361 59.7461C43.3361 59.7461 30.7646 50.8615 30.7646 39.4384C30.7646 36.0722 32.0891 32.8439 34.4467 30.4636C36.8043 28.0833 40.0019 26.7461 43.3361 26.7461C46.6702 26.7461 49.8678 28.0833 52.2254 30.4636C54.583 32.8439 55.9075 36.0722 55.9075 39.4384V39.4384Z" stroke="#0152A8" stroke-width="2" stroke-linecap="round" stroke-linejoin="round"/>
</svg>
