<svg width="88" height="88" viewBox="0 0 88 88" fill="none" xmlns="http://www.w3.org/2000/svg">
<g filter="url(#filter0_d_54_424)">
<rect x="4" width="80" height="80" rx="40" fill="#0155A5"/>
<path d="M56.6568 45.8779L52.8826 50.4069L51.2373 48.7617L51.2374 48.7616L51.228 48.7525C50.898 48.4338 50.4559 48.2574 49.9971 48.2614C49.5382 48.2653 49.0993 48.4494 48.7749 48.7738C48.4504 49.0983 48.2663 49.5372 48.2624 49.9961C48.2584 50.4549 48.4348 50.897 48.7535 51.227L48.7535 51.2271L48.7627 51.2363L51.7626 54.2363C52.0907 54.5645 52.5358 54.7489 52.9998 54.749H53H53.045H53.0617L53.0784 54.7483C53.3212 54.7374 53.5592 54.6761 53.777 54.5683C53.9949 54.4604 54.1878 54.3083 54.3437 54.1218L54.3442 54.1211L59.3226 48.147L59.3234 48.1462L59.3448 48.1206C59.4921 47.9441 59.6032 47.7404 59.6717 47.521C59.7403 47.3016 59.7649 47.0708 59.7443 46.8419C59.7237 46.6129 59.6581 46.3903 59.5515 46.1867C59.4448 45.9831 59.299 45.8025 59.1226 45.6552C58.9461 45.5079 58.7424 45.3968 58.523 45.3283C58.3036 45.2597 58.0728 45.2351 57.8439 45.2557C57.6149 45.2764 57.3923 45.3419 57.1887 45.4485C56.9851 45.5552 56.8045 45.701 56.6572 45.8774L56.6568 45.8779ZM38.4768 29.8539L38.4154 29.8476L38.3537 29.8514C37.7867 29.8865 37.2372 30.0557 36.75 30.3437V19.75H47.242V30.5868C47.2212 30.5724 47.2003 30.5582 47.1792 30.5441C46.6083 30.1635 45.9537 29.9268 45.2713 29.8542L45.1984 29.8464L45.1253 29.853C44.4174 29.9162 43.7357 30.1513 43.1393 30.5379C42.6485 30.856 42.2277 31.2689 41.9008 31.7509C41.5102 31.2491 41.0268 30.8261 40.4761 30.5054C39.8636 30.1486 39.1819 29.9265 38.4768 29.8539ZM48.3054 41.4774C49.9908 40.3513 51.9722 39.7502 53.9991 39.75C56.7169 39.7532 59.3223 40.8342 61.244 42.756C63.1658 44.6777 64.2468 47.2832 64.25 50.0009C64.2498 52.0278 63.6487 54.0092 62.5226 55.6946C61.3963 57.3802 59.7954 58.694 57.9225 59.4698C56.0496 60.2456 53.9886 60.4486 52.0003 60.0531C50.012 59.6576 48.1856 58.6813 46.7522 57.2478C45.3187 55.8144 44.3425 53.988 43.947 51.9997C43.5515 50.0114 43.7544 47.9504 44.5302 46.0775C45.306 44.2046 46.6198 42.6037 48.3054 41.4774Z" stroke="white" stroke-width="1.5"/>
<path d="M60.25 37.7557C57.6704 36.4366 54.728 35.9613 51.8439 36.418C48.5197 36.9444 45.5041 38.6723 43.3692 41.2742C41.2342 43.8761 40.1282 47.171 40.261 50.534C40.3717 53.3384 41.3374 56.0276 43.0081 58.25H28C26.8728 58.25 25.7918 57.8022 24.9948 57.0052C24.1978 56.2082 23.75 55.1272 23.75 54V24C23.75 22.8728 24.1978 21.7918 24.9948 20.9948C25.7918 20.1978 26.8728 19.75 28 19.75H33.25L33.25 32.23L33.25 32.2313C33.2511 32.8289 33.4468 33.4099 33.8075 33.8864C34.1682 34.3628 34.6743 34.7088 35.2492 34.872C35.8241 35.0351 36.4365 35.0066 36.9938 34.7906C37.551 34.5746 38.0227 34.1831 38.3375 33.6751L38.3377 33.6748C38.4118 33.5551 38.4715 33.467 38.5192 33.4024C38.5656 33.4297 38.6266 33.471 38.7035 33.5337C38.9015 33.6952 39.1071 33.9145 39.3513 34.1781C39.6378 34.5926 40.0058 34.9445 40.4332 35.2122C40.8785 35.491 41.3779 35.672 41.8985 35.7431L42.0003 35.757L42.1021 35.743C42.6318 35.6702 43.1367 35.4725 43.575 35.1662C43.9966 34.8714 44.345 34.4843 44.5938 34.0346C44.812 33.7419 44.9637 33.554 45.0932 33.4352C45.1154 33.4148 45.1344 33.399 45.1502 33.3867C45.1563 33.3924 45.1629 33.3986 45.1698 33.4054C45.2987 33.5306 45.4586 33.7317 45.6988 34.0484L45.8052 34.1935L45.8094 34.1993L45.8137 34.205C46.1625 34.662 46.6456 34.9982 47.1953 35.1664C47.745 35.3346 48.3336 35.3264 48.8783 35.1427C49.4231 34.9591 49.8966 34.6094 50.2323 34.1428C50.568 33.6762 50.7491 33.1161 50.75 32.5412V32.54V19.75H56C56.5581 19.75 57.1108 19.8599 57.6264 20.0735C58.142 20.2871 58.6106 20.6001 59.0052 20.9948C59.3999 21.3894 59.7129 21.858 59.9265 22.3736C60.1401 22.8892 60.25 23.4419 60.25 24V37.7557ZM45.2149 33.3462C45.2149 33.3464 45.2131 33.3472 45.2097 33.348C45.2133 33.3465 45.2149 33.3461 45.2149 33.3462ZM45.078 33.3278C45.0766 33.3271 45.0759 33.3267 45.0759 33.3266C45.0759 33.3266 45.0766 33.3269 45.078 33.3278ZM30 53.75H37C37.4641 53.75 37.9092 53.5656 38.2374 53.2374C38.5656 52.9092 38.75 52.4641 38.75 52C38.75 51.5359 38.5656 51.0908 38.2374 50.7626C37.9092 50.4344 37.4641 50.25 37 50.25H30C29.5359 50.25 29.0908 50.4344 28.7626 50.7626C28.4344 51.0908 28.25 51.5359 28.25 52C28.25 52.4641 28.4344 52.9092 28.7626 53.2374C29.0908 53.5656 29.5359 53.75 30 53.75ZM30 49.75H37C37.4641 49.75 37.9092 49.5656 38.2374 49.2374C38.5656 48.9092 38.75 48.4641 38.75 48C38.75 47.5359 38.5656 47.0908 38.2374 46.7626C37.9092 46.4344 37.4641 46.25 37 46.25H30C29.5359 46.25 29.0908 46.4344 28.7626 46.7626C28.4344 47.0908 28.25 47.5359 28.25 48C28.25 48.4641 28.4344 48.9092 28.7626 49.2374C29.0908 49.5656 29.5359 49.75 30 49.75Z" stroke="white" stroke-width="1.5"/>
</g>
<defs>
<filter id="filter0_d_54_424" x="0" y="0" width="88" height="88" filterUnits="userSpaceOnUse" color-interpolation-filters="sRGB">
<feFlood flood-opacity="0" result="BackgroundImageFix"/>
<feColorMatrix in="SourceAlpha" type="matrix" values="0 0 0 0 0 0 0 0 0 0 0 0 0 0 0 0 0 0 127 0" result="hardAlpha"/>
<feOffset dy="4"/>
<feGaussianBlur stdDeviation="2"/>
<feComposite in2="hardAlpha" operator="out"/>
<feColorMatrix type="matrix" values="0 0 0 0 0 0 0 0 0 0 0 0 0 0 0 0 0 0 0.25 0"/>
<feBlend mode="normal" in2="BackgroundImageFix" result="effect1_dropShadow_54_424"/>
<feBlend mode="normal" in="SourceGraphic" in2="effect1_dropShadow_54_424" result="shape"/>
</filter>
</defs>
</svg>
