<svg width="78" height="71" viewBox="0 0 78 71" fill="none" xmlns="http://www.w3.org/2000/svg">
<rect width="78" height="71" rx="35.5" fill="#0155A5"/>
<path d="M21.2052 52.6102H21.2055C22.1098 52.6092 22.9768 52.2495 23.6162 51.61C24.1938 51.0322 24.5431 50.2688 24.6058 49.4599C25.8743 49.562 27.126 49.8851 28.2682 50.4334L37.7182 54.9706C38.3845 55.2905 39.1031 55.4512 39.8232 55.4512H39.8234C40.515 55.4508 41.1985 55.3029 41.8284 55.0173L59.4863 47.0242L59.4864 47.0245L59.498 47.0185C59.8394 46.842 60.0936 46.5292 60.1975 46.1597L60.1975 46.1595C60.2488 45.9763 60.2622 45.7847 60.2368 45.5962C60.2114 45.4077 60.1478 45.2264 60.0499 45.0633L60.0495 45.0627C58.6428 42.7355 55.9949 41.5011 53.3335 41.9179L45.0023 42.907C45.0697 42.6359 45.1042 42.3571 45.1048 42.0767V42.076C45.1038 41.1504 44.7357 40.2631 44.0812 39.6087C43.4267 38.9542 42.5394 38.5861 41.6139 38.585H41.6136H37.0838C36.2169 37.7282 35.1919 37.0475 34.0653 36.5808C32.9139 36.1039 31.6794 35.8601 30.4331 35.8634H24.616V35.7535V35.7532C24.6151 34.8489 24.2556 33.9818 23.6162 33.3423C22.9768 32.7028 22.1098 32.3431 21.2055 32.342H21.2052H18.6C18.3746 32.342 18.1584 32.4316 17.999 32.591H17.999C17.8396 32.7504 17.75 32.9666 17.75 33.192V51.7603C17.75 51.9857 17.8396 52.2019 17.999 52.3613C18.1584 52.5207 18.3746 52.6102 18.6 52.6102H21.2052ZM56.4178 43.9867C57.2213 44.3524 57.9115 44.9245 58.4194 45.6423L41.1277 53.4687L41.1276 53.4688C40.7068 53.6596 40.2493 53.7557 39.7873 53.7504C39.3253 53.7451 38.8701 53.6386 38.4538 53.4382L38.4536 53.4381L29.0036 48.9009L29.0032 48.9007C27.6258 48.2422 26.1375 47.8488 24.616 47.7404V37.564L30.4338 37.5634C32.5131 37.5634 34.4679 38.3729 35.9384 39.8434L36.1301 40.0352C36.209 40.1142 36.3026 40.177 36.4058 40.2199C36.5089 40.2628 36.6194 40.2849 36.7311 40.285H36.7314H41.6136C42.6011 40.285 43.4048 41.0887 43.4048 42.0763C43.4048 43.0637 42.6012 43.8668 41.6136 43.8668H31.0494C30.824 43.8668 30.6078 43.9564 30.4484 44.1158C30.289 44.2752 30.1994 44.4914 30.1994 44.7169C30.1994 44.9423 30.289 45.1585 30.4484 45.3179C30.6078 45.4773 30.824 45.5669 31.0494 45.5669H41.6136C42.4299 45.5668 43.2192 45.2793 43.8437 44.7564L53.5603 43.6031L53.5603 43.6033L53.5702 43.6017C54.5366 43.4474 55.5271 43.5813 56.4178 43.9867ZM19.45 34.042H21.2049C21.6586 34.0426 22.0936 34.2231 22.4144 34.544C22.7352 34.8649 22.9156 35.2999 22.916 35.7537V49.1986C22.9156 49.6524 22.7352 50.0874 22.4144 50.4083C22.0936 50.7292 21.6586 50.9097 21.2049 50.9102H19.45V34.042ZM58.8 16.55H32.4C31.6001 16.55 30.95 17.2002 30.95 18V33.6C30.95 34.3999 31.6001 35.05 32.4 35.05H58.8C59.5999 35.05 60.25 34.3999 60.25 33.6V18C60.25 17.2002 59.5999 16.55 58.8 16.55ZM58.55 18.25V21.4059C57.7775 21.2411 57.0668 20.8561 56.5053 20.2947C55.9439 19.7333 55.559 19.0225 55.3941 18.25H58.55ZM32.65 18.25H35.8059C35.641 19.0225 35.2561 19.7333 34.6947 20.2947C34.1332 20.8561 33.4225 21.2411 32.65 21.4059V18.25ZM32.65 33.35V30.1942C33.4225 30.359 34.1332 30.744 34.6947 31.3054C35.2561 31.8668 35.641 32.5775 35.8059 33.35H32.65ZM37.5372 33.35C37.3535 32.1215 36.7805 30.9819 35.8993 30.1008C35.0181 29.2196 33.8786 28.6465 32.65 28.4628V23.1372C33.8786 22.9536 35.0181 22.3805 35.8993 21.4993C36.7805 20.6182 37.3535 19.4786 37.5372 18.25H53.6628C53.8465 19.4786 54.4195 20.6182 55.3007 21.4993C56.1819 22.3805 57.3215 22.9536 58.55 23.1372V28.4628C57.3215 28.6465 56.1819 29.2196 55.3007 30.1008C54.4195 30.9819 53.8465 32.1215 53.6628 33.35H37.5372ZM58.55 33.35H55.3941C55.559 32.5775 55.9439 31.8668 56.5053 31.3054C57.0668 30.744 57.7775 30.359 58.55 30.1942V33.35Z" fill="white" stroke="white" stroke-width="0.5"/>
<path d="M37.1996 23.7498H38.9996C39.225 23.7498 39.4412 23.8394 39.6007 23.9988C39.7601 24.1582 39.8496 24.3744 39.8496 24.5998C39.8496 24.8252 39.7601 25.0414 39.6007 25.2008C39.4412 25.3603 39.225 25.4498 38.9996 25.4498H37.1996C36.9742 25.4498 36.758 25.3603 36.5986 25.2008M37.1996 23.7498L36.5986 25.2008C36.5986 25.2008 36.5986 25.2008 36.5986 25.2008M37.1996 23.7498C36.9742 23.7498 36.758 23.8394 36.5986 23.9988M37.1996 23.7498L36.5986 23.9988M36.5986 25.2008C36.4392 25.0414 36.3496 24.8252 36.3496 24.5998C36.3496 24.3744 36.4392 24.1582 36.5986 23.9988M36.5986 25.2008V23.9988M37.1996 26.1498H38.9996C39.225 26.1498 39.4412 26.2394 39.6007 26.3988C39.7601 26.5582 39.8496 26.7744 39.8496 26.9998C39.8496 27.2252 39.7601 27.4414 39.6007 27.6008C39.4412 27.7603 39.225 27.8498 38.9996 27.8498H37.1996C36.9742 27.8498 36.758 27.7603 36.5986 27.6008M37.1996 26.1498L36.5986 27.6008C36.5986 27.6008 36.5986 27.6008 36.5986 27.6008M37.1996 26.1498C36.9742 26.1498 36.758 26.2394 36.5986 26.3988M37.1996 26.1498L36.5986 26.3988M36.5986 27.6008C36.4392 27.4414 36.3496 27.2252 36.3496 26.9998C36.3496 26.7744 36.4392 26.5582 36.5986 26.3988M36.5986 27.6008V26.3988M45.5996 22.2008C46.4787 22.2008 47.1496 22.8414 47.1496 23.575C47.1496 23.8004 47.2392 24.0166 47.3986 24.176L47.5753 23.9993L47.3986 24.176C47.558 24.3355 47.7742 24.425 47.9996 24.425C48.225 24.425 48.4412 24.3355 48.6007 24.176C48.7601 24.0166 48.8496 23.8004 48.8496 23.575C48.8496 22.1481 47.8221 20.9598 46.4496 20.6077V20.3998C46.4496 20.1744 46.3601 19.9582 46.2007 19.7988C46.0412 19.6394 45.825 19.5498 45.5996 19.5498C45.3742 19.5498 45.158 19.6394 44.9986 19.7988V19.7988C44.8392 19.9582 44.7496 20.1744 44.7496 20.3998V20.6077C43.3771 20.9598 42.3496 22.1481 42.3496 23.575C42.3496 25.2846 43.8217 26.6498 45.5996 26.6498C46.4786 26.6498 47.1496 27.2903 47.1496 28.0246C47.1496 28.7582 46.4787 29.3988 45.5996 29.3988C44.7205 29.3988 44.0496 28.7582 44.0496 28.0246C44.0496 27.7992 43.9601 27.583 43.8007 27.4236C43.6412 27.2642 43.425 27.1746 43.1996 27.1746C42.9742 27.1746 42.758 27.2642 42.5986 27.4236C42.4392 27.583 42.3496 27.7992 42.3496 28.0246C42.3496 29.4515 43.3771 30.6398 44.7496 30.9919V31.1998C44.7496 31.4252 44.8392 31.6414 44.9986 31.8008C45.158 31.9603 45.3742 32.0498 45.5996 32.0498C45.825 32.0498 46.0412 31.9603 46.2007 31.8008C46.3601 31.6414 46.4496 31.4252 46.4496 31.1998V30.9919C47.8221 30.6398 48.8496 29.4515 48.8496 28.0246C48.8496 26.315 47.3775 24.9498 45.5996 24.9498C44.7206 24.9498 44.0496 24.3093 44.0496 23.575C44.0496 22.8414 44.7205 22.2008 45.5996 22.2008ZM53.9996 23.7498H52.1996C51.9742 23.7498 51.758 23.8394 51.5986 23.9988C51.4392 24.1582 51.3496 24.3744 51.3496 24.5998C51.3496 24.8252 51.4392 25.0414 51.5986 25.2008C51.758 25.3603 51.9742 25.4498 52.1996 25.4498H53.9996C54.225 25.4498 54.4412 25.3603 54.6007 25.2008C54.7601 25.0414 54.8496 24.8252 54.8496 24.5998C54.8496 24.3744 54.7601 24.1582 54.6007 23.9988C54.4412 23.8394 54.225 23.7498 53.9996 23.7498ZM53.9996 26.1498H52.1996C51.9742 26.1498 51.758 26.2394 51.5986 26.3988C51.4392 26.5582 51.3496 26.7744 51.3496 26.9998C51.3496 27.2252 51.4392 27.4414 51.5986 27.6008C51.758 27.7603 51.9742 27.8498 52.1996 27.8498H53.9996C54.225 27.8498 54.4412 27.7603 54.6007 27.6008C54.7601 27.4414 54.8496 27.2252 54.8496 26.9998C54.8496 26.7744 54.7601 26.5582 54.6007 26.3988C54.4412 26.2394 54.225 26.1498 53.9996 26.1498Z" fill="white" stroke="white" stroke-width="0.5"/>
</svg>
