<svg width="80" height="80" viewBox="0 0 80 80" fill="none" xmlns="http://www.w3.org/2000/svg">
<rect width="80" height="80" rx="24" fill="#0155A5"/>
<path fill-rule="evenodd" clip-rule="evenodd" d="M49.252 38.5H43.582C39.9475 38.5 37 41.4475 37 45.082V45.418C37 49.0525 39.9475 52 43.582 52H49.147C49.9045 52 50.629 52.3 51.1645 52.8355C51.7 53.371 52 54.0955 52 54.853V55.147C52 55.9045 51.7 56.629 51.1645 57.1645C50.629 57.7 49.9045 58 49.147 58H30.748C32.695 54.9445 34 49.909 34 47.5C34 43.36 30.64 40 26.5 40C22.36 40 19 43.36 19 47.5C19 50.0155 20.422 55.393 22.513 58.3915C23.6755 60.058 25.102 61 26.5 61H49.147C50.6995 61 52.1875 60.3835 53.2855 59.2855C54.3835 58.1875 55 56.6995 55 55.147C55 55.0495 55 54.9505 55 54.853C55 53.3005 54.3835 51.8125 53.2855 50.7145C52.1875 49.6165 50.6995 49 49.147 49H47.5H43.582C41.6035 49 40 47.3965 40 45.418V45.082C40 43.1035 41.6035 41.5 43.582 41.5H53.5C54.898 41.5 56.3245 40.558 57.487 38.8915C59.578 35.893 61 30.5155 61 28C61 23.86 57.64 20.5 53.5 20.5C49.36 20.5 46 23.86 46 28C46 30.409 47.305 35.4445 49.252 38.5ZM26.5 58C26.191 58 25.9315 57.769 25.6525 57.4975C25.153 57.0085 24.7 56.317 24.2845 55.5295C22.912 52.933 22 49.3285 22 47.5C22 45.016 24.016 43 26.5 43C28.984 43 31 45.016 31 47.5C31 49.3285 30.088 52.933 28.7155 55.5295C28.3 56.317 27.847 57.0085 27.3475 57.4975C27.0685 57.769 26.809 58 26.5 58ZM26.5 45.25C27.742 45.25 28.75 46.258 28.75 47.5C28.75 48.742 27.742 49.75 26.5 49.75C25.258 49.75 24.25 48.742 24.25 47.5C24.25 46.258 25.258 45.25 26.5 45.25ZM53.5 23.5C55.984 23.5 58 25.516 58 28C58 29.8285 57.088 33.433 55.7155 36.0295C55.3 36.817 54.847 37.5085 54.3475 37.9975C54.0685 38.269 53.809 38.5 53.5 38.5C53.191 38.5 52.9315 38.269 52.6525 37.9975C52.153 37.5085 51.7 36.817 51.2845 36.0295C49.912 33.433 49 29.8285 49 28C49 25.516 51.016 23.5 53.5 23.5ZM53.5 25.75C54.742 25.75 55.75 26.758 55.75 28C55.75 29.242 54.742 30.25 53.5 30.25C52.258 30.25 51.25 29.242 51.25 28C51.25 26.758 52.258 25.75 53.5 25.75Z" fill="white"/>
</svg>
