<svg width="80" height="80" viewBox="0 0 80 80" fill="none" xmlns="http://www.w3.org/2000/svg">
<rect width="80" height="80" rx="40" fill="#0155A5"/>
<path d="M36.4836 21.5787L36.4371 22.2822C36.4221 22.5192 36.3051 22.6722 36.0621 22.8447C35.8296 23.0082 35.4861 23.1432 35.1711 23.1717H31.8426C29.5881 23.1717 27.7656 25.0287 27.7656 27.2967V31.5162C27.7341 31.6392 27.7341 31.7682 27.7656 31.8912V34.4217C27.7699 35.9722 28.2986 37.4757 29.2656 38.6877V42.2502L21.8586 46.4697C20.9171 47.0077 20.1348 47.7855 19.5915 48.724C19.0482 49.6626 18.7632 50.7283 18.7656 51.8127V58.4217H50.2656V57.4527C56.6781 55.1712 61.2306 49.0587 61.2336 41.9247C61.2336 32.8212 53.8386 25.4247 44.7336 25.4247V25.4217C43.5636 25.4217 42.4056 25.5837 41.2656 25.8327V25.7952C41.1156 24.6552 40.7706 23.6307 40.0926 22.8432C39.4176 22.0542 38.3991 21.5712 37.1871 21.5772H36.4836V21.5787ZM37.4211 23.1717C38.0871 23.2272 38.6121 23.4117 38.9676 23.8287C39.3786 24.3057 39.6426 25.0347 39.7656 25.9842V30.5322C39.4677 30.3845 39.1529 30.2737 38.8281 30.2022C37.9341 30.0387 37.0236 30.0687 36.1566 30.1092C35.2866 30.1452 34.4226 30.1497 33.7656 29.9682C33.1071 29.7882 32.6076 29.5062 32.1711 28.7502C32.0897 28.6053 31.9636 28.4906 31.8118 28.423C31.6599 28.3555 31.4903 28.3387 31.3281 28.3752C31.2004 28.4156 31.0855 28.4888 30.995 28.5875C30.9044 28.6862 30.8414 28.807 30.8121 28.9377C30.8391 28.8357 30.7341 29.0712 30.5301 29.3127C30.3276 29.5527 30.0306 29.8452 29.7351 30.1092C29.5671 30.2592 29.4231 30.3642 29.2656 30.4842V27.2982C29.2656 25.8237 30.4041 24.6732 31.8441 24.6732H35.2176C35.8262 24.6296 36.4108 24.4183 36.9066 24.0627C37.1736 23.8722 37.2396 23.4747 37.4211 23.1717ZM44.7336 26.9217C48.2225 26.9196 51.6028 28.1345 54.2921 30.3569C56.9815 32.5793 58.8115 35.6702 59.4668 39.0969C60.1221 42.5236 59.5617 46.0716 57.8821 49.1295C56.2026 52.1875 53.509 54.5638 50.2656 55.8492V54.0867C54.8406 51.9117 57.9861 47.2767 57.9876 41.9247C57.9876 34.4787 51.9351 28.4247 44.4876 28.4247V28.4217C43.3986 28.4217 42.3171 28.5657 41.2656 28.8297V27.3597C42.4003 27.0772 43.5644 26.9302 44.7336 26.9217ZM44.4876 29.9217C51.1236 29.9217 56.4876 35.2857 56.4876 41.9217C56.4876 46.4367 53.9796 50.3667 50.2656 52.4127V51.6717C50.262 50.6247 49.9829 49.5971 49.4563 48.6921C48.9297 47.7871 48.1741 47.0367 47.2656 46.5162L39.7656 42.2502V38.6877C40.7327 37.4757 41.2614 35.9722 41.2656 34.4217V32.4057C41.3139 32.2534 41.3139 32.09 41.2656 31.9377V30.3972C42.3125 30.0906 43.3968 29.9306 44.4876 29.9217ZM31.7496 30.1557C32.2746 30.6657 32.7636 31.2492 33.3906 31.4217C34.3401 31.6842 35.3106 31.6467 36.2031 31.6092C37.0956 31.5717 37.9281 31.5417 38.5461 31.6557C39.1011 31.7592 39.4671 31.9707 39.7656 32.4057V34.4217C39.7656 37.3917 37.4316 39.7182 34.5156 39.7182C31.5981 39.7182 29.2656 37.3902 29.2656 34.4232V32.3127C29.4141 32.2407 29.5401 32.1252 29.6871 32.0307C30.0411 31.8057 30.3756 31.5417 30.7191 31.2357C31.0522 30.9444 31.3649 30.6307 31.6551 30.2967C31.6941 30.2517 31.7136 30.1992 31.7496 30.1557ZM44.2656 31.4217V34.4217H45.7656V31.4217H44.2656ZM51.9051 34.4817L49.7841 36.6012L50.8446 37.6617L52.9671 35.5407L51.9066 34.4802L51.9051 34.4817ZM44.2656 35.9217V40.6542C44.0416 40.7825 43.8547 40.9667 43.7232 41.1889C43.5917 41.4111 43.5202 41.6636 43.5156 41.9217C43.5156 42.7422 44.1951 43.4217 45.0156 43.4217C45.2733 43.4168 45.5252 43.345 45.7469 43.2136C45.9685 43.0821 46.1523 42.8954 46.2801 42.6717H49.5156V41.1717H46.2801C46.1539 40.9595 45.9771 40.7817 45.7656 40.6542V35.9202H44.2656V35.9217ZM30.7656 40.1412C31.8321 40.8507 33.1386 41.2182 34.5156 41.2182C35.8926 41.2182 37.1976 40.8507 38.2656 40.1412V43.0002C37.6611 44.1312 37.1256 45.3222 35.7816 46.4697L35.7336 46.5147L34.5156 47.6397L33.3906 46.5147L33.2961 46.4217C32.2461 45.2892 31.2561 43.9482 30.7656 42.6717V40.1412ZM52.5156 41.1612V42.6612H55.5156V41.1612H52.5156ZM28.7031 44.3112L27.7656 47.6397V47.7327C27.6246 48.8997 28.8906 49.8852 29.9676 49.3737V49.3272L32.7336 47.9667L33.7656 48.9522V56.9202H26.2656V53.1702H24.7656V56.9202H20.2656V51.8112C20.2656 50.1342 21.1536 48.5652 22.6086 47.7327L28.7031 44.3112ZM30.2031 44.3112C30.6831 45.1752 31.1586 46.0062 31.7961 46.7487L29.3121 48.0147C29.2551 48.0417 29.2506 48.0462 29.2656 47.9202L30.2031 44.3112ZM40.5621 44.4057L46.5156 47.8257C47.1955 48.2122 47.7614 48.7711 48.1564 49.4461C48.5515 50.121 48.7616 50.8882 48.7656 51.6702V56.9202H44.3121V53.1702H42.8121V56.9202H35.2656V49.0002L36.3906 47.9682L39.3441 49.3752C40.4361 49.8702 41.6976 48.9252 41.5461 47.7342V47.5932C41.5461 47.5932 41.1306 46.3287 40.7496 45.0627C40.6776 44.8227 40.6311 44.6337 40.5621 44.4057ZM39.0621 44.6397C39.1491 44.9382 39.2031 45.2187 39.2961 45.5292C39.6606 46.7412 40.0056 47.7927 40.0461 47.9202C40.0596 48.0222 40.0461 48.0552 39.9531 48.0102L37.4211 46.7922C38.1171 46.0317 38.6931 45.3252 39.0621 44.6397ZM50.8446 46.1697L49.7841 47.2287L51.9066 49.3497L52.9671 48.2892L50.8446 46.1682V46.1697ZM36.7656 51.6702C36.5667 51.6702 36.376 51.7492 36.2353 51.8899C36.0947 52.0305 36.0156 52.2213 36.0156 52.4202C36.0156 52.6191 36.0947 52.8099 36.2353 52.9505C36.376 53.0912 36.5667 53.1702 36.7656 53.1702C36.9646 53.1702 37.1553 53.0912 37.296 52.9505C37.4366 52.8099 37.5156 52.6191 37.5156 52.4202C37.5156 52.2213 37.4366 52.0305 37.296 51.8899C37.1553 51.7492 36.9646 51.6702 36.7656 51.6702ZM36.7656 54.6702C36.5667 54.6702 36.376 54.7492 36.2353 54.8899C36.0947 55.0305 36.0156 55.2213 36.0156 55.4202C36.0156 55.6191 36.0947 55.8099 36.2353 55.9505C36.376 56.0912 36.5667 56.1702 36.7656 56.1702C36.9646 56.1702 37.1553 56.0912 37.296 55.9505C37.4366 55.8099 37.5156 55.6191 37.5156 55.4202C37.5156 55.2213 37.4366 55.0305 37.296 54.8899C37.1553 54.7492 36.9646 54.6702 36.7656 54.6702Z" fill="white"/>
</svg>
