<svg width="80" height="80" viewBox="0 0 80 80" fill="none" xmlns="http://www.w3.org/2000/svg">
<rect width="80" height="80" rx="40" fill="#0155A5"/>
<path d="M52.6568 45.8779L48.8826 50.4069L47.2373 48.7617L47.2374 48.7616L47.228 48.7525C46.898 48.4338 46.4559 48.2574 45.9971 48.2614C45.5382 48.2653 45.0993 48.4494 44.7749 48.7738C44.4504 49.0983 44.2663 49.5372 44.2624 49.9961C44.2584 50.4549 44.4348 50.897 44.7535 51.227L44.7535 51.2271L44.7627 51.2363L47.7626 54.2363C48.0907 54.5645 48.5358 54.7489 48.9998 54.749H49H49.045H49.0617L49.0784 54.7483C49.3212 54.7374 49.5592 54.6761 49.777 54.5683C49.9949 54.4604 50.1878 54.3083 50.3437 54.1218L50.3442 54.1211L55.3226 48.147L55.3234 48.1462L55.3448 48.1206C55.4921 47.9441 55.6032 47.7404 55.6717 47.521C55.7403 47.3016 55.7649 47.0708 55.7443 46.8419C55.7237 46.6129 55.6581 46.3903 55.5515 46.1867C55.4448 45.9831 55.299 45.8025 55.1226 45.6552C54.9461 45.5079 54.7424 45.3968 54.523 45.3283C54.3036 45.2597 54.0728 45.2351 53.8439 45.2557C53.6149 45.2764 53.3923 45.3419 53.1887 45.4485C52.9851 45.5552 52.8045 45.701 52.6572 45.8774L52.6568 45.8779ZM34.4768 29.8539L34.4154 29.8476L34.3537 29.8514C33.7867 29.8865 33.2372 30.0557 32.75 30.3437V19.75H43.242V30.5868C43.2212 30.5724 43.2003 30.5582 43.1792 30.5441C42.6083 30.1635 41.9537 29.9268 41.2713 29.8542L41.1984 29.8464L41.1253 29.853C40.4174 29.9162 39.7357 30.1513 39.1393 30.5379C38.6485 30.856 38.2277 31.2689 37.9008 31.7509C37.5102 31.2491 37.0268 30.8261 36.4761 30.5054C35.8636 30.1486 35.1819 29.9265 34.4768 29.8539ZM44.3054 41.4774C45.9908 40.3513 47.9722 39.7502 49.9991 39.75C52.7169 39.7532 55.3223 40.8342 57.244 42.756C59.1658 44.6777 60.2468 47.2832 60.25 50.0009C60.2498 52.0278 59.6487 54.0092 58.5226 55.6946C57.3963 57.3802 55.7954 58.694 53.9225 59.4698C52.0496 60.2456 49.9886 60.4486 48.0003 60.0531C46.012 59.6576 44.1856 58.6813 42.7522 57.2478C41.3187 55.8144 40.3425 53.988 39.947 51.9997C39.5515 50.0114 39.7544 47.9504 40.5302 46.0775C41.306 44.2046 42.6198 42.6037 44.3054 41.4774Z" stroke="white" stroke-width="1.5"/>
<path d="M56.25 37.7557C53.6704 36.4366 50.728 35.9613 47.8439 36.418C44.5197 36.9444 41.5041 38.6723 39.3692 41.2742C37.2342 43.8761 36.1282 47.171 36.261 50.534C36.3717 53.3384 37.3374 56.0276 39.0081 58.25H24C22.8728 58.25 21.7918 57.8022 20.9948 57.0052C20.1978 56.2082 19.75 55.1272 19.75 54V24C19.75 22.8728 20.1978 21.7918 20.9948 20.9948C21.7918 20.1978 22.8728 19.75 24 19.75H29.25L29.25 32.23L29.25 32.2313C29.2511 32.8289 29.4468 33.4099 29.8075 33.8864C30.1682 34.3628 30.6743 34.7088 31.2492 34.872C31.8241 35.0351 32.4365 35.0066 32.9938 34.7906C33.551 34.5746 34.0227 34.1831 34.3375 33.6751L34.3377 33.6748C34.4118 33.5551 34.4715 33.467 34.5192 33.4024C34.5656 33.4297 34.6266 33.471 34.7035 33.5337C34.9015 33.6952 35.1071 33.9145 35.3513 34.1781C35.6378 34.5926 36.0058 34.9445 36.4332 35.2122C36.8785 35.491 37.3779 35.672 37.8985 35.7431L38.0003 35.757L38.1021 35.743C38.6318 35.6702 39.1367 35.4725 39.575 35.1662C39.9966 34.8714 40.345 34.4843 40.5938 34.0346C40.812 33.7419 40.9637 33.554 41.0932 33.4352C41.1154 33.4148 41.1344 33.399 41.1502 33.3867C41.1563 33.3924 41.1629 33.3986 41.1698 33.4054C41.2987 33.5306 41.4586 33.7317 41.6988 34.0484L41.8052 34.1935L41.8094 34.1993L41.8137 34.205C42.1625 34.662 42.6456 34.9982 43.1953 35.1664C43.745 35.3346 44.3336 35.3264 44.8783 35.1427C45.4231 34.9591 45.8966 34.6094 46.2323 34.1428C46.568 33.6762 46.7491 33.1161 46.75 32.5412V32.54V19.75H52C52.5581 19.75 53.1108 19.8599 53.6264 20.0735C54.142 20.2871 54.6106 20.6001 55.0052 20.9948C55.3999 21.3894 55.7129 21.858 55.9265 22.3736C56.1401 22.8892 56.25 23.4419 56.25 24V37.7557ZM41.2149 33.3462C41.2149 33.3464 41.2131 33.3472 41.2097 33.348C41.2133 33.3465 41.2149 33.3461 41.2149 33.3462ZM41.078 33.3278C41.0766 33.3271 41.0759 33.3267 41.0759 33.3266C41.0759 33.3266 41.0766 33.3269 41.078 33.3278ZM26 53.75H33C33.4641 53.75 33.9092 53.5656 34.2374 53.2374C34.5656 52.9092 34.75 52.4641 34.75 52C34.75 51.5359 34.5656 51.0908 34.2374 50.7626C33.9092 50.4344 33.4641 50.25 33 50.25H26C25.5359 50.25 25.0908 50.4344 24.7626 50.7626C24.4344 51.0908 24.25 51.5359 24.25 52C24.25 52.4641 24.4344 52.9092 24.7626 53.2374C25.0908 53.5656 25.5359 53.75 26 53.75ZM26 49.75H33C33.4641 49.75 33.9092 49.5656 34.2374 49.2374C34.5656 48.9092 34.75 48.4641 34.75 48C34.75 47.5359 34.5656 47.0908 34.2374 46.7626C33.9092 46.4344 33.4641 46.25 33 46.25H26C25.5359 46.25 25.0908 46.4344 24.7626 46.7626C24.4344 47.0908 24.25 47.5359 24.25 48C24.25 48.4641 24.4344 48.9092 24.7626 49.2374C25.0908 49.5656 25.5359 49.75 26 49.75Z" stroke="white" stroke-width="1.5"/>
</svg>
