<svg width="86" height="86" viewBox="0 0 86 86" fill="none" xmlns="http://www.w3.org/2000/svg">
<circle cx="42.6855" cy="43.2461" r="42.5" fill="#E6ECF2"/>
<path d="M49.5605 43.2422C49.5605 47.0392 46.4825 50.1172 42.6856 50.1172C38.8886 50.1172 35.8106 47.0392 35.8106 43.2422C35.8106 39.4453 38.8886 36.3672 42.6856 36.3672C46.4825 36.3672 49.5605 39.4453 49.5605 43.2422ZM49.5605 43.2422C49.5605 47.0406 50.9355 50.1172 54.373 50.1172C57.8105 50.1172 59.1855 47.0406 59.1855 43.2422C59.1847 39.566 57.9562 35.9954 55.6949 33.0969C53.4336 30.1984 50.2692 28.1381 46.7037 27.2428C43.1381 26.3476 39.3757 26.6687 36.0135 28.1553C32.6512 29.6418 29.8817 32.2086 28.1444 35.4484C26.4071 38.6882 25.8014 42.4154 26.4236 46.0385C27.0457 49.6617 28.8601 52.9734 31.5786 55.448C34.2972 57.9226 37.7644 59.4185 41.4299 59.6982C45.0955 59.978 48.7495 59.0256 51.8121 56.9922M49.5605 43.2422V36.3672" stroke="#0152A8" stroke-width="2" stroke-linecap="round" stroke-linejoin="round"/>
</svg>
