<?xml version="1.0" encoding="utf-8"?>
<!-- Generator: Adobe Illustrator 24.1.1, SVG Export Plug-In . SVG Version: 6.00 Build 0)  -->
<svg version="1.1" id="Layer_1" xmlns="http://www.w3.org/2000/svg" xmlns:xlink="http://www.w3.org/1999/xlink" x="0px" y="0px"
	 viewBox="0 0 566.9 510.2" style="enable-background:new 0 0 566.9 510.2;" xml:space="preserve">
<style type="text/css">
	.st0{fill:#FFFFFF;stroke:#FFFFFF;stroke-miterlimit:10;}
	.st1{fill:none;stroke:#FFFFFF;stroke-miterlimit:10;}
</style>
<path class="st0" d="M0,474.9c1.8-10.3,3.1-20.7,5.5-30.9c9-37.7,27-71.1,50.9-101.4c19-24,42.8-42.6,69.7-57.1
	c30.1-16.2,62.2-23.9,96.5-20.1c20.7,2.3,40.1,9.4,59.6,16.2c22.5,7.7,45.1,15.3,67.8,22.3c13.5,4.2,27.1,3.2,40.9-0.2
	c7.4-1.9,15.8-2.2,23.3-0.8c12.3,2.2,17.1,13,11.4,24.1c-5.9,11.6-15,20.9-25.8,28.2c-25.3,17-52.9,18.3-81.6,10.9
	c-17.9-4.6-35.9-9-54.6-8.8c-2.9,0-5.8,0.1-8.5,0.9c-2.9,0.9-7.7,2.7-7.7,4.1c0.1,3.9,1,8.9,3.7,11.5c13.9,13.6,30.9,21.6,50.1,25.2
	c19.9,3.7,39.4,0.3,58.8-3.6c35.5-7.2,68.2-21.8,100.5-37.2c13.6-6.5,27.1-13.3,41.2-18.3c12.6-4.4,25.9-7.1,39.1-9.2
	c11-1.8,20.4,2.3,26,12.7c0,2.1,0,4.3,0,6.4c-4.4,10.1-12.5,16.5-21.4,22.5c-20,13.5-40,27.1-59.6,41.2
	c-16.6,11.9-32.5,24.6-49.1,36.6c-18.9,13.7-39.1,25-60.9,33.8c-47.8,19.5-96.5,21.7-146.2,9.1c-27.8-7-53.5-19.4-79.6-30.7
	c-15.9-6.9-31.8-13.9-48.1-19.9c-17.9-6.6-33.5-1.7-46.8,11.4c-9.7,9.6-15.4,21.3-18.6,34.4c-2.4,9.9-6.6,18.4-17.2,22
	c-2.2,0-4.3,0-6.5,0c-8-3.5-12.4-9.5-13-18.2C0,486.3,0,480.6,0,474.9z M547.5,349.1c-0.2-0.6-0.4-1.3-0.6-1.9c-7,1-14,1.8-20.9,3.2
	c-21.9,4.5-41.3,15.3-61.1,24.8c-38.3,18.3-77.3,34-119.8,40.4c-37.3,5.6-71.2-0.7-100.6-24.9c-4.8-4-9.2-9.2-11.8-14.8
	c-8.1-17.2,0.2-32.4,19.3-34.5c11.3-1.2,23.1-1.1,34.3,0.5c17.4,2.5,34.3,7.7,51.7,10.3c28.4,4.2,52.1-4.9,69.6-28.1
	c1-1.3,1.7-2.9,2.6-4.4c-0.3-0.6-0.5-1.2-0.8-1.8c-6.9,1.3-13.9,2.3-20.7,3.9c-19.7,4.7-38.7,0.7-57.3-4.8
	c-17.5-5.2-34.4-12.4-51.8-18.1c-17.3-5.6-34.7-12.1-52.5-15.3c-34.6-6.2-67.1,2.1-97.2,19.5C102.5,319,79.1,339,61.3,364.9
	c-21,30.5-36.8,63.1-42.4,99.9c-1.1,7.5-1.2,15.1-1.8,22.7c0.5,0.1,1,0.1,1.6,0.2c1.3-4.4,2.4-8.8,4-13.1
	c9-24.2,23.9-42.8,50.1-50.3c16.7-4.8,32.5,0.1,47.7,6c15.7,6.1,30.7,13.8,46.2,20.4c17.6,7.5,35.2,15.3,53.2,21.6
	c31.5,11,64.3,13.9,97.3,9.7c36.3-4.7,69.2-18.6,99.3-38.8c16.2-10.9,31.5-23,47.4-34.3c25.2-18,50.6-35.8,75.9-53.7
	C542.6,353.3,545,351.1,547.5,349.1z"/>
<path class="st0" d="M19.4,510.2c10.6-3.6,14.8-12.1,17.2-22c3.2-13,8.9-24.8,18.6-34.4c13.3-13.1,29-18,46.8-11.4
	c16.3,6,32.2,13,48.1,19.9c26.1,11.4,51.8,23.7,79.6,30.7c49.7,12.5,98.4,10.3,146.2-9.1c21.7-8.9,42-20.1,60.9-33.8
	c16.5-12,32.5-24.8,49.1-36.6c19.6-14.1,39.6-27.7,59.6-41.2c8.9-6,17-12.4,21.4-22.5c0,53.5,0,107,0,160.4
	C384.4,510.2,201.9,510.2,19.4,510.2z"/>
<path class="st1" d="M0,492c0.6,8.7,5,14.7,13,18.2c-4.3,0-8.6,0-13,0C0,504.1,0,498.1,0,492z"/>
<path class="st0" d="M283.6,149c11.3-9.6,24.3-15.6,38.6-18.4c29.4-5.8,55.6,1.2,77.7,21.4c18.2,16.7,27.9,37.4,29.2,62.1
	c1.3,24.6-6.8,45.7-22.1,64.6c-2.5,3.1-5.4,4.6-9.5,5.2c-7.8,1.1-15.4,3.1-24.5,5c2.4-2.6,3.9-4.5,5.6-6.1
	c14.8-13.9,28.3-28.5,32.1-49.4c4.1-22.6-0.6-42.9-15.2-61.1c-12.2-15.2-28-23.6-47.2-26c-21.5-2.7-40,4.1-56,18.2
	c-7.5,6.6-10.4,6.8-17.7,0c-29.9-27.7-77.4-24.2-102.8,7.4c-19,23.7-21.9,49.5-10.5,77.2c0.3,0.8,0.6,1.7,1,2.9
	c-5.4,1.7-10.5,3.4-15.7,5c-15.5-28.8-11.7-72.4,15.4-100.5C195.7,121.4,246.8,119.9,283.6,149z"/>
<path class="st0" d="M340.5,57.9c0.8,34-28.4,57.4-57.2,57.3c-28.5-0.1-56.8-22.8-57-56.6c-0.2-33.1,25.8-57.2,57.1-57.3
	C314.4,1.1,340.9,25.6,340.5,57.9z M323.2,58c0-22.2-17.8-39.9-40-39.7c-21.8,0.2-39.4,17.9-39.6,39.7c-0.1,24.4,19.7,39.9,39.8,40
	C303.2,98,323.6,82.3,323.2,58z"/>
<path class="st0" d="M547.5,349.1c-2.5,2-4.9,4.1-7.5,6c-25.3,17.9-50.6,35.7-75.9,53.7c-15.9,11.3-31.2,23.5-47.4,34.3
	c-30.1,20.2-63.1,34.1-99.3,38.8c-33.1,4.2-65.8,1.4-97.3-9.7c-18.1-6.3-35.6-14.1-53.2-21.6c-15.5-6.6-30.5-14.3-46.2-20.4
	c-15.2-5.9-31-10.8-47.7-6c-26.2,7.5-41.1,26.1-50.1,50.3c-1.6,4.3-2.7,8.7-4,13.1c-0.5-0.1-1-0.1-1.6-0.2
	c0.6-7.6,0.7-15.2,1.8-22.7c5.5-36.8,21.4-69.5,42.4-99.9c17.9-25.9,41.2-46,68.3-61.7c30.1-17.5,62.6-25.7,97.2-19.5
	c17.9,3.2,35.2,9.6,52.5,15.3c17.4,5.7,34.3,12.9,51.8,18.1c18.6,5.6,37.6,9.5,57.3,4.8c6.8-1.6,13.8-2.6,20.7-3.9
	c0.3,0.6,0.5,1.2,0.8,1.8c-0.8,1.5-1.5,3-2.6,4.4c-17.5,23.1-41.2,32.2-69.6,28.1c-17.4-2.5-34.3-7.7-51.7-10.3
	c-11.2-1.6-23-1.7-34.3-0.5c-19.1,2.1-27.5,17.3-19.3,34.5c2.6,5.6,7,10.8,11.8,14.8c29.4,24.2,63.4,30.5,100.6,24.9
	c42.5-6.4,81.5-22.1,119.8-40.4c19.9-9.5,39.2-20.2,61.1-24.8c6.9-1.4,14-2.2,20.9-3.2C547,347.8,547.2,348.5,547.5,349.1z"/>
<path class="st0" d="M323.2,58c0.4,24.3-19.9,40-39.8,40c-20.1-0.1-39.9-15.6-39.8-40c0.1-21.8,17.7-39.5,39.6-39.7
	C305.3,18.1,323.1,35.8,323.2,58z"/>
</svg>
